<svg xmlns="http://www.w3.org/2000/svg" xmlns:xlink="http://www.w3.org/1999/xlink" width="786" zoomAndPan="magnify" viewBox="0 0 589.5 191.249993" height="255" preserveAspectRatio="xMidYMid meet" version="1.0"><defs><filter x="0%" y="0%" width="100%" height="100%" id="b53a210a54"><feColorMatrix values="0 0 0 0 1 0 0 0 0 1 0 0 0 0 1 0 0 0 1 0" color-interpolation-filters="sRGB"/></filter><g/><clipPath id="55f57e2c0b"><path d="M 0.902344 0 L 588.097656 0 L 588.097656 190.503906 L 0.902344 190.503906 Z M 0.902344 0 " clip-rule="nonzero"/></clipPath><clipPath id="9d719730c0"><path d="M 264 0 L 520 0 L 520 190.503906 L 264 190.503906 Z M 264 0 " clip-rule="nonzero"/></clipPath><clipPath id="916f3f9de6"><path d="M 313.578125 -33.339844 L 519.167969 5.40625 L 470.34375 264.457031 L 264.753906 225.710938 Z M 313.578125 -33.339844 " clip-rule="nonzero"/></clipPath><clipPath id="79879b5f4a"><path d="M 424 0 L 586 0 L 586 190.503906 L 424 190.503906 Z M 424 0 " clip-rule="nonzero"/></clipPath><clipPath id="7991c7fcf3"><path d="M 473.664062 -45.457031 L 585.523438 -24.375 L 536.703125 234.675781 L 424.839844 213.59375 Z M 473.664062 -45.457031 " clip-rule="nonzero"/></clipPath><clipPath id="d85594cac2"><path d="M 21.820312 21.175781 L 567.164062 21.175781 L 567.164062 169.09375 L 21.820312 169.09375 Z M 21.820312 21.175781 " clip-rule="nonzero"/></clipPath><clipPath id="d5e5365c65"><path d="M 27.796875 21.175781 L 561.195312 21.175781 C 564.496094 21.175781 567.171875 23.851562 567.171875 27.152344 L 567.171875 163.339844 C 567.171875 166.640625 564.496094 169.316406 561.195312 169.316406 L 27.796875 169.316406 C 24.496094 169.316406 21.820312 166.640625 21.820312 163.339844 L 21.820312 27.152344 C 21.820312 23.851562 24.496094 21.175781 27.796875 21.175781 Z M 27.796875 21.175781 " clip-rule="nonzero"/></clipPath><clipPath id="c370a508f5"><path d="M 123.769531 136.421875 L 133.480469 136.421875 L 133.480469 146.132812 L 123.769531 146.132812 Z M 123.769531 136.421875 " clip-rule="nonzero"/></clipPath><mask id="53c44c5c55"><g filter="url(#b53a210a54)"><rect x="-58.95" width="707.4" fill="#000000" y="-19.124999" height="229.499992" fill-opacity="0.15"/></g></mask><clipPath id="c441cb3df6"><path d="M 4.359375 3.847656 L 111.769531 3.847656 L 111.769531 64.546875 L 4.359375 64.546875 Z M 4.359375 3.847656 " clip-rule="nonzero"/></clipPath><clipPath id="16674967d4"><path d="M 9.589844 3.847656 L 106.46875 3.847656 C 109.355469 3.847656 111.695312 6.191406 111.695312 9.078125 L 111.695312 59.320312 C 111.695312 62.207031 109.355469 64.546875 106.46875 64.546875 L 9.589844 64.546875 C 6.703125 64.546875 4.359375 62.207031 4.359375 59.320312 L 4.359375 9.078125 C 4.359375 6.191406 6.703125 3.847656 9.589844 3.847656 Z M 9.589844 3.847656 " clip-rule="nonzero"/></clipPath><clipPath id="459faa4aa6"><path d="M 4.367188 3.847656 L 111.9375 3.847656 L 111.9375 64.363281 L 4.367188 64.363281 Z M 4.367188 3.847656 " clip-rule="nonzero"/></clipPath><clipPath id="0f89b6fbe9"><path d="M 9.597656 3.847656 L 106.457031 3.847656 C 109.34375 3.847656 111.683594 6.191406 111.683594 9.078125 L 111.683594 59.308594 C 111.683594 62.195312 109.34375 64.535156 106.457031 64.535156 L 9.597656 64.535156 C 6.710938 64.535156 4.367188 62.195312 4.367188 59.308594 L 4.367188 9.078125 C 4.367188 6.191406 6.710938 3.847656 9.597656 3.847656 Z M 9.597656 3.847656 " clip-rule="nonzero"/></clipPath><clipPath id="73a506ec58"><rect x="0" width="116" y="0" height="68"/></clipPath><clipPath id="c5760a416e"><path d="M 304.367188 45.847656 L 411.9375 45.847656 L 411.9375 106.363281 L 304.367188 106.363281 Z M 304.367188 45.847656 " clip-rule="nonzero"/></clipPath><clipPath id="2b9248093d"><path d="M 309.597656 45.847656 L 406.457031 45.847656 C 409.34375 45.847656 411.683594 48.191406 411.683594 51.078125 L 411.683594 101.308594 C 411.683594 104.195312 409.34375 106.535156 406.457031 106.535156 L 309.597656 106.535156 C 306.710938 106.535156 304.367188 104.195312 304.367188 101.308594 L 304.367188 51.078125 C 304.367188 48.191406 306.710938 45.847656 309.597656 45.847656 Z M 309.597656 45.847656 " clip-rule="nonzero"/></clipPath><clipPath id="5ef6a109a1"><path d="M 0.902344 0 L 19 0 L 19 43 L 0.902344 43 Z M 0.902344 0 " clip-rule="nonzero"/></clipPath><clipPath id="86a95d8072"><path d="M -6.296875 -19.996094 L 18.910156 -15.246094 L 8.101562 42.097656 L -17.105469 37.347656 Z M -6.296875 -19.996094 " clip-rule="nonzero"/></clipPath><clipPath id="2394d7830b"><path d="M 570 0 L 588.097656 0 L 588.097656 43 L 570 43 Z M 570 0 " clip-rule="nonzero"/></clipPath><clipPath id="5c87907879"><path d="M 591.363281 -75.03125 L 616.570312 -70.28125 L 595.390625 42.097656 L 570.183594 37.347656 Z M 591.363281 -75.03125 " clip-rule="nonzero"/></clipPath><clipPath id="076dc23e3f"><path d="M 21.820312 182.027344 L 567.164062 182.027344 L 567.164062 190.503906 L 21.820312 190.503906 Z M 21.820312 182.027344 " clip-rule="nonzero"/></clipPath><clipPath id="a1dc093fd0"><path d="M 27.796875 182.027344 L 561.195312 182.027344 C 564.496094 182.027344 567.171875 184.703125 567.171875 188.003906 L 567.171875 201.417969 C 567.171875 204.71875 564.496094 207.394531 561.195312 207.394531 L 27.796875 207.394531 C 24.496094 207.394531 21.820312 204.71875 21.820312 201.417969 L 21.820312 188.003906 C 21.820312 184.703125 24.496094 182.027344 27.796875 182.027344 Z M 27.796875 182.027344 " clip-rule="nonzero"/></clipPath><clipPath id="a36012fa7e"><path d="M 431.574219 95.25 L 538.984375 95.25 L 538.984375 155.949219 L 431.574219 155.949219 Z M 431.574219 95.25 " clip-rule="nonzero"/></clipPath><clipPath id="b077e6ebb1"><path d="M 436.804688 95.25 L 533.679688 95.25 C 536.570312 95.25 538.910156 97.59375 538.910156 100.480469 L 538.910156 150.722656 C 538.910156 153.609375 536.570312 155.949219 533.679688 155.949219 L 436.804688 155.949219 C 433.917969 155.949219 431.574219 153.609375 431.574219 150.722656 L 431.574219 100.480469 C 431.574219 97.59375 433.917969 95.25 436.804688 95.25 Z M 436.804688 95.25 " clip-rule="nonzero"/></clipPath><clipPath id="b29723cb82"><path d="M 431.582031 95.25 L 539 95.25 L 539 155.765625 L 431.582031 155.765625 Z M 431.582031 95.25 " clip-rule="nonzero"/></clipPath><clipPath id="38195ffea4"><path d="M 436.8125 95.25 L 533.671875 95.25 C 536.558594 95.25 538.898438 97.59375 538.898438 100.480469 L 538.898438 150.710938 C 538.898438 153.597656 536.558594 155.9375 533.671875 155.9375 L 436.8125 155.9375 C 433.925781 155.9375 431.582031 153.597656 431.582031 150.710938 L 431.582031 100.480469 C 431.582031 97.59375 433.925781 95.25 436.8125 95.25 Z M 436.8125 95.25 " clip-rule="nonzero"/></clipPath><clipPath id="1973873dfe"><path d="M 405.285156 90.746094 L 443.78125 90.746094 L 443.78125 110.507812 L 405.285156 110.507812 Z M 405.285156 90.746094 " clip-rule="nonzero"/></clipPath><clipPath id="35f6ad9251"><path d="M 567 155 L 588.097656 155 L 588.097656 190.503906 L 567 190.503906 Z M 567 155 " clip-rule="nonzero"/></clipPath><clipPath id="c6f2a237cd"><path d="M 578.324219 155.308594 L 603.53125 160.058594 L 592.722656 217.402344 L 567.515625 212.652344 Z M 578.324219 155.308594 " clip-rule="nonzero"/></clipPath><clipPath id="e1336e733d"><path d="M 0.902344 176 L 19 176 L 19 190.503906 L 0.902344 190.503906 Z M 0.902344 176 " clip-rule="nonzero"/></clipPath><clipPath id="33b7a8ff15"><path d="M -6.296875 176.347656 L 18.910156 181.097656 L 8.101562 238.441406 L -17.105469 233.691406 Z M -6.296875 176.347656 " clip-rule="nonzero"/></clipPath></defs><g clip-path="url(#55f57e2c0b)"><path fill="#ffffff" d="M 0.902344 0 L 588.097656 0 L 588.097656 190.503906 L 0.902344 190.503906 Z M 0.902344 0 " fill-opacity="1" fill-rule="nonzero"/><path fill="#1c1c1c" d="M 0.902344 0 L 588.097656 0 L 588.097656 190.503906 L 0.902344 190.503906 Z M 0.902344 0 " fill-opacity="1" fill-rule="nonzero"/></g><g clip-path="url(#9d719730c0)"><g clip-path="url(#916f3f9de6)"><path fill="#242424" d="M 313.578125 -33.339844 L 519.167969 5.40625 L 470.28125 264.804688 L 264.691406 226.058594 Z M 313.578125 -33.339844 " fill-opacity="1" fill-rule="nonzero"/></g></g><g clip-path="url(#79879b5f4a)"><g clip-path="url(#7991c7fcf3)"><path fill="#242424" d="M 473.664062 -45.457031 L 585.523438 -24.375 L 536.6875 234.742188 L 424.828125 213.660156 Z M 473.664062 -45.457031 " fill-opacity="1" fill-rule="nonzero"/></g></g><g clip-path="url(#d85594cac2)"><g clip-path="url(#d5e5365c65)"><path stroke-linecap="butt" transform="matrix(0.74707, 0, 0, 0.74707, 21.820685, 21.175066)" fill="none" stroke-linejoin="miter" d="M 7.999503 0.000957218 L 721.986487 0.000957218 C 726.404788 0.000957218 729.986487 3.582657 729.986487 8.000958 L 729.986487 190.296397 C 729.986487 194.714698 726.404788 198.296398 721.986487 198.296398 L 7.999503 198.296398 C 3.581202 198.296398 -0.000497965 194.714698 -0.000497965 190.296397 L -0.000497965 8.000958 C -0.000497965 3.582657 3.581202 0.000957218 7.999503 0.000957218 Z M 7.999503 0.000957218 " stroke="#2c502f" stroke-width="2" stroke-opacity="1" stroke-miterlimit="4"/></g></g><g clip-path="url(#c370a508f5)"><path fill="#ffffff" d="M 128.679688 136.421875 C 125.972656 136.421875 123.769531 138.621094 123.769531 141.328125 C 123.769531 144.035156 125.972656 146.238281 128.679688 146.238281 C 131.382812 146.238281 133.585938 144.035156 133.585938 141.328125 C 133.585938 138.621094 131.382812 136.421875 128.679688 136.421875 Z M 128.679688 145.582031 C 126.332031 145.582031 124.425781 143.675781 124.425781 141.328125 C 124.425781 138.984375 126.332031 137.074219 128.679688 137.074219 C 131.023438 137.074219 132.933594 138.984375 132.933594 141.328125 C 132.933594 143.675781 131.023438 145.582031 128.679688 145.582031 Z M 128.679688 145.582031 " fill-opacity="1" fill-rule="nonzero"/></g><path fill="#ffffff" d="M 128.171875 139.144531 C 128.042969 139.015625 127.835938 139.015625 127.710938 139.144531 C 127.582031 139.273438 127.582031 139.480469 127.710938 139.609375 L 129.429688 141.328125 L 127.710938 143.050781 C 127.582031 143.175781 127.582031 143.386719 127.710938 143.511719 C 127.773438 143.578125 127.855469 143.609375 127.941406 143.609375 C 128.023438 143.609375 128.109375 143.578125 128.171875 143.511719 L 130.125 141.558594 C 130.253906 141.433594 130.253906 141.226562 130.125 141.097656 Z M 128.171875 139.144531 " fill-opacity="1" fill-rule="nonzero"/><g mask="url(#53c44c5c55)"><g transform="matrix(1, 0, 0, 1, 300, 42)"><g clip-path="url(#73a506ec58)"><g clip-path="url(#c441cb3df6)"><g clip-path="url(#16674967d4)"><path fill="#ffffff" d="M 4.359375 3.847656 L 111.769531 3.847656 L 111.769531 64.546875 L 4.359375 64.546875 Z M 4.359375 3.847656 " fill-opacity="1" fill-rule="nonzero"/></g></g><g clip-path="url(#459faa4aa6)"><g clip-path="url(#0f89b6fbe9)"><path stroke-linecap="butt" transform="matrix(0.74707, 0, 0, 0.74707, 4.369062, 3.848996)" fill="none" stroke-linejoin="miter" d="M 6.998799 -0.00179396 L 136.651096 -0.00179396 C 140.515149 -0.00179396 143.647175 3.135461 143.647175 6.999514 L 143.647175 74.23612 C 143.647175 78.100173 140.515149 81.232199 136.651096 81.232199 L 6.998799 81.232199 C 3.134746 81.232199 -0.00250915 78.100173 -0.00250915 74.23612 L -0.00250915 6.999514 C -0.00250915 3.135461 3.134746 -0.00179396 6.998799 -0.00179396 Z M 6.998799 -0.00179396 " stroke="#ffde59" stroke-width="2" stroke-opacity="1" stroke-miterlimit="4"/></g></g></g></g></g><g clip-path="url(#c5760a416e)"><g clip-path="url(#2b9248093d)"><path stroke-linecap="butt" transform="matrix(0.74707, 0, 0, 0.74707, 304.369062, 45.848997)" fill="none" stroke-linejoin="miter" d="M 6.998799 -0.00179496 L 136.651096 -0.00179496 C 140.515149 -0.00179496 143.647175 3.13546 143.647175 6.999513 L 143.647175 74.236119 C 143.647175 78.100172 140.515149 81.232198 136.651096 81.232198 L 6.998799 81.232198 C 3.134746 81.232198 -0.00250906 78.100172 -0.00250906 74.236119 L -0.00250906 6.999513 C -0.00250906 3.13546 3.134746 -0.00179496 6.998799 -0.00179496 Z M 6.998799 -0.00179496 " stroke="#2c502f" stroke-width="2" stroke-opacity="1" stroke-miterlimit="4"/></g></g><g clip-path="url(#5ef6a109a1)"><g clip-path="url(#86a95d8072)"><path fill="#2c502f" d="M -6.296875 -19.996094 L 18.910156 -15.246094 L 8.109375 42.058594 L -17.097656 37.304688 Z M -6.296875 -19.996094 " fill-opacity="1" fill-rule="nonzero"/></g></g><g clip-path="url(#2394d7830b)"><g clip-path="url(#5c87907879)"><path fill="#2c502f" d="M 591.363281 -75.03125 L 616.570312 -70.28125 L 595.398438 42.0625 L 570.191406 37.3125 Z M 591.363281 -75.03125 " fill-opacity="1" fill-rule="nonzero"/></g></g><g clip-path="url(#076dc23e3f)"><g clip-path="url(#a1dc093fd0)"><path stroke-linecap="butt" transform="matrix(0.74707, 0, 0, 0.74707, 21.82034, 182.028045)" fill="none" stroke-linejoin="miter" d="M 7.999964 -0.000938169 L 721.986948 -0.000938169 C 726.405249 -0.000938169 729.986949 3.580761 729.986949 7.999062 L 729.986949 25.954619 C 729.986949 30.37292 726.405249 33.95462 721.986948 33.95462 L 7.999964 33.95462 C 3.581663 33.95462 -0.000036525 30.37292 -0.000036525 25.954619 L -0.000036525 7.999062 C -0.000036525 3.580761 3.581663 -0.000938169 7.999964 -0.000938169 Z M 7.999964 -0.000938169 " stroke="#2c502f" stroke-width="2" stroke-opacity="1" stroke-miterlimit="4"/></g></g><g fill="#ffffff" fill-opacity="1"><g transform="translate(338.902706, 86.090301)"><g><path d="M 12.1875 -16 C 12.03125 -16.75 11.75 -17.304688 11.34375 -17.671875 C 10.945312 -18.046875 10.378906 -18.234375 9.640625 -18.234375 C 8.492188 -18.234375 7.671875 -17.734375 7.171875 -16.734375 C 6.671875 -15.742188 6.410156 -14.179688 6.390625 -12.046875 C 6.835938 -12.742188 7.472656 -13.289062 8.296875 -13.6875 C 9.128906 -14.09375 10.046875 -14.296875 11.046875 -14.296875 C 13.015625 -14.296875 14.59375 -13.675781 15.78125 -12.4375 C 16.96875 -11.195312 17.5625 -9.460938 17.5625 -7.234375 C 17.5625 -5.773438 17.265625 -4.492188 16.671875 -3.390625 C 16.085938 -2.285156 15.226562 -1.421875 14.09375 -0.796875 C 12.96875 -0.179688 11.632812 0.125 10.09375 0.125 C 7.007812 0.125 4.863281 -0.835938 3.65625 -2.765625 C 2.457031 -4.703125 1.859375 -7.484375 1.859375 -11.109375 C 1.859375 -14.910156 2.492188 -17.738281 3.765625 -19.59375 C 5.035156 -21.445312 7.070312 -22.375 9.875 -22.375 C 11.375 -22.375 12.640625 -22.078125 13.671875 -21.484375 C 14.703125 -20.890625 15.484375 -20.113281 16.015625 -19.15625 C 16.546875 -18.195312 16.863281 -17.144531 16.96875 -16 Z M 9.8125 -10.234375 C 8.957031 -10.234375 8.242188 -9.976562 7.671875 -9.46875 C 7.097656 -8.957031 6.8125 -8.234375 6.8125 -7.296875 C 6.8125 -6.335938 7.078125 -5.585938 7.609375 -5.046875 C 8.140625 -4.503906 8.894531 -4.234375 9.875 -4.234375 C 10.757812 -4.234375 11.457031 -4.5 11.96875 -5.03125 C 12.476562 -5.5625 12.734375 -6.285156 12.734375 -7.203125 C 12.734375 -8.148438 12.484375 -8.890625 11.984375 -9.421875 C 11.484375 -9.960938 10.757812 -10.234375 9.8125 -10.234375 Z M 9.8125 -10.234375 "/></g></g></g><g fill="#ffffff" fill-opacity="1"><g transform="translate(357.21644, 86.090301)"><g><path d="M 1.34375 -11.265625 C 1.34375 -14.703125 2.007812 -17.410156 3.34375 -19.390625 C 4.675781 -21.378906 6.828125 -22.375 9.796875 -22.375 C 12.753906 -22.375 14.898438 -21.378906 16.234375 -19.390625 C 17.566406 -17.410156 18.234375 -14.703125 18.234375 -11.265625 C 18.234375 -7.773438 17.566406 -5.039062 16.234375 -3.0625 C 14.898438 -1.082031 12.753906 -0.09375 9.796875 -0.09375 C 6.828125 -0.09375 4.675781 -1.082031 3.34375 -3.0625 C 2.007812 -5.039062 1.34375 -7.773438 1.34375 -11.265625 Z M 13.1875 -11.265625 C 13.1875 -13.285156 12.960938 -14.835938 12.515625 -15.921875 C 12.078125 -17.015625 11.171875 -17.5625 9.796875 -17.5625 C 8.410156 -17.5625 7.492188 -17.015625 7.046875 -15.921875 C 6.609375 -14.835938 6.390625 -13.285156 6.390625 -11.265625 C 6.390625 -9.898438 6.46875 -8.769531 6.625 -7.875 C 6.789062 -6.988281 7.117188 -6.269531 7.609375 -5.71875 C 8.097656 -5.164062 8.828125 -4.890625 9.796875 -4.890625 C 10.753906 -4.890625 11.476562 -5.164062 11.96875 -5.71875 C 12.457031 -6.269531 12.78125 -6.988281 12.9375 -7.875 C 13.101562 -8.769531 13.1875 -9.898438 13.1875 -11.265625 Z M 13.1875 -11.265625 "/></g></g></g><path fill="#ffffff" d="M 338.902344 74.136719 L 375.988281 74.136719 L 375.988281 77.125 L 338.902344 77.125 Z M 338.902344 74.136719 " fill-opacity="1" fill-rule="nonzero"/><g clip-path="url(#a36012fa7e)"><g clip-path="url(#b077e6ebb1)"><path fill="#2c502f" d="M 431.574219 95.25 L 538.984375 95.25 L 538.984375 155.949219 L 431.574219 155.949219 Z M 431.574219 95.25 " fill-opacity="1" fill-rule="nonzero"/></g></g><g clip-path="url(#b29723cb82)"><g clip-path="url(#38195ffea4)"><path stroke-linecap="butt" transform="matrix(0.74707, 0, 0, 0.74707, 431.583551, 95.251457)" fill="none" stroke-linejoin="miter" d="M 6.999274 -0.00195081 L 136.651571 -0.00195081 C 140.515624 -0.00195081 143.64765 3.135304 143.64765 6.999357 L 143.64765 74.235964 C 143.64765 78.100016 140.515624 81.232042 136.651571 81.232042 L 6.999274 81.232042 C 3.135221 81.232042 -0.00203401 78.100016 -0.00203401 74.235964 L -0.00203401 6.999357 C -0.00203401 3.135304 3.135221 -0.00195081 6.999274 -0.00195081 Z M 6.999274 -0.00195081 " stroke="#2c502f" stroke-width="2" stroke-opacity="1" stroke-miterlimit="4"/></g></g><g clip-path="url(#1973873dfe)"><path fill="#231f20" d="M 405.285156 90.746094 L 443.804688 90.746094 L 443.804688 110.507812 L 405.285156 110.507812 Z M 405.285156 90.746094 " fill-opacity="1" fill-rule="nonzero"/></g><g clip-path="url(#35f6ad9251)"><g clip-path="url(#c6f2a237cd)"><path fill="#2c502f" d="M 578.324219 155.308594 L 603.53125 160.058594 L 592.730469 217.363281 L 567.523438 212.609375 Z M 578.324219 155.308594 " fill-opacity="1" fill-rule="nonzero"/></g></g><g fill="#ffffff" fill-opacity="1"><g transform="translate(314.681024, 80.783099)"><g><path d="M 5.59375 0 L 3.65625 -3.53125 L 3.109375 -3.53125 L 3.109375 0 L 0.828125 0 L 0.828125 -9.359375 L 4.65625 -9.359375 C 5.382812 -9.359375 6.007812 -9.226562 6.53125 -8.96875 C 7.050781 -8.707031 7.441406 -8.351562 7.703125 -7.90625 C 7.960938 -7.457031 8.09375 -6.957031 8.09375 -6.40625 C 8.09375 -5.789062 7.914062 -5.238281 7.5625 -4.75 C 7.207031 -4.257812 6.691406 -3.910156 6.015625 -3.703125 L 8.171875 0 Z M 3.109375 -5.140625 L 4.515625 -5.140625 C 4.929688 -5.140625 5.242188 -5.238281 5.453125 -5.4375 C 5.660156 -5.644531 5.765625 -5.9375 5.765625 -6.3125 C 5.765625 -6.664062 5.660156 -6.945312 5.453125 -7.15625 C 5.242188 -7.363281 4.929688 -7.46875 4.515625 -7.46875 L 3.109375 -7.46875 Z M 3.109375 -5.140625 "/></g></g></g><g fill="#ffffff" fill-opacity="1"><g transform="translate(323.00823, 80.783099)"><g><path d="M 7.90625 -2.71875 C 7.90625 -2.226562 7.773438 -1.773438 7.515625 -1.359375 C 7.265625 -0.953125 6.894531 -0.613281 6.40625 -0.34375 C 5.914062 -0.0820312 5.332031 0.0546875 4.65625 0.078125 L 4.65625 1.15625 L 3.796875 1.15625 L 3.796875 0.0625 C 2.859375 -0.0078125 2.097656 -0.285156 1.515625 -0.765625 C 0.941406 -1.253906 0.632812 -1.921875 0.59375 -2.765625 L 3.03125 -2.765625 C 3.082031 -2.222656 3.335938 -1.878906 3.796875 -1.734375 L 3.796875 -3.84375 C 3.109375 -4.019531 2.554688 -4.191406 2.140625 -4.359375 C 1.722656 -4.523438 1.359375 -4.796875 1.046875 -5.171875 C 0.742188 -5.546875 0.59375 -6.054688 0.59375 -6.703125 C 0.59375 -7.515625 0.890625 -8.164062 1.484375 -8.65625 C 2.085938 -9.144531 2.859375 -9.414062 3.796875 -9.46875 L 3.796875 -10.5625 L 4.65625 -10.5625 L 4.65625 -9.46875 C 5.582031 -9.40625 6.316406 -9.132812 6.859375 -8.65625 C 7.398438 -8.1875 7.703125 -7.535156 7.765625 -6.703125 L 5.328125 -6.703125 C 5.273438 -7.179688 5.050781 -7.492188 4.65625 -7.640625 L 4.65625 -5.578125 C 5.382812 -5.367188 5.945312 -5.179688 6.34375 -5.015625 C 6.75 -4.859375 7.109375 -4.59375 7.421875 -4.21875 C 7.742188 -3.851562 7.90625 -3.351562 7.90625 -2.71875 Z M 3 -6.8125 C 3 -6.59375 3.066406 -6.40625 3.203125 -6.25 C 3.335938 -6.101562 3.535156 -5.96875 3.796875 -5.84375 L 3.796875 -7.703125 C 3.546875 -7.660156 3.347656 -7.566406 3.203125 -7.421875 C 3.066406 -7.273438 3 -7.070312 3 -6.8125 Z M 4.65625 -1.6875 C 4.914062 -1.738281 5.125 -1.847656 5.28125 -2.015625 C 5.4375 -2.179688 5.515625 -2.390625 5.515625 -2.640625 C 5.515625 -2.867188 5.441406 -3.054688 5.296875 -3.203125 C 5.148438 -3.347656 4.9375 -3.472656 4.65625 -3.578125 Z M 4.65625 -1.6875 "/></g></g></g><g fill="#ffffff" fill-opacity="1"><g transform="translate(37.108461, 101.074859)"><g><path d="M 7.765625 1.609375 L 6.078125 -0.078125 C 5.660156 0.0234375 5.234375 0.078125 4.796875 0.078125 C 4.003906 0.078125 3.28125 -0.101562 2.625 -0.46875 C 1.976562 -0.84375 1.46875 -1.359375 1.09375 -2.015625 C 0.71875 -2.679688 0.53125 -3.429688 0.53125 -4.265625 C 0.53125 -5.097656 0.71875 -5.84375 1.09375 -6.5 C 1.46875 -7.164062 1.976562 -7.679688 2.625 -8.046875 C 3.28125 -8.421875 4.003906 -8.609375 4.796875 -8.609375 C 5.597656 -8.609375 6.320312 -8.421875 6.96875 -8.046875 C 7.625 -7.679688 8.140625 -7.164062 8.515625 -6.5 C 8.890625 -5.84375 9.078125 -5.097656 9.078125 -4.265625 C 9.078125 -3.453125 8.894531 -2.71875 8.53125 -2.0625 C 8.175781 -1.414062 7.6875 -0.90625 7.0625 -0.53125 L 9.21875 1.609375 Z M 1.65625 -4.265625 C 1.65625 -3.585938 1.789062 -2.988281 2.0625 -2.46875 C 2.34375 -1.957031 2.71875 -1.5625 3.1875 -1.28125 C 3.664062 -1.007812 4.203125 -0.875 4.796875 -0.875 C 5.390625 -0.875 5.925781 -1.007812 6.40625 -1.28125 C 6.882812 -1.5625 7.257812 -1.957031 7.53125 -2.46875 C 7.800781 -2.988281 7.9375 -3.585938 7.9375 -4.265625 C 7.9375 -4.953125 7.800781 -5.546875 7.53125 -6.046875 C 7.257812 -6.554688 6.882812 -6.953125 6.40625 -7.234375 C 5.9375 -7.515625 5.398438 -7.65625 4.796875 -7.65625 C 4.191406 -7.65625 3.65625 -7.515625 3.1875 -7.234375 C 2.71875 -6.953125 2.34375 -6.554688 2.0625 -6.046875 C 1.789062 -5.546875 1.65625 -4.953125 1.65625 -4.265625 Z M 1.65625 -4.265625 "/></g></g></g><g fill="#ffffff" fill-opacity="1"><g transform="translate(46.407341, 101.074859)"><g><path d="M 6.875 -6.703125 L 6.875 0 L 5.765625 0 L 5.765625 -0.984375 C 5.554688 -0.640625 5.257812 -0.375 4.875 -0.1875 C 4.5 0 4.082031 0.09375 3.625 0.09375 C 3.101562 0.09375 2.632812 -0.0078125 2.21875 -0.21875 C 1.800781 -0.4375 1.472656 -0.757812 1.234375 -1.1875 C 0.992188 -1.625 0.875 -2.15625 0.875 -2.78125 L 0.875 -6.703125 L 1.984375 -6.703125 L 1.984375 -2.921875 C 1.984375 -2.265625 2.148438 -1.757812 2.484375 -1.40625 C 2.816406 -1.050781 3.269531 -0.875 3.84375 -0.875 C 4.4375 -0.875 4.90625 -1.054688 5.25 -1.421875 C 5.59375 -1.785156 5.765625 -2.316406 5.765625 -3.015625 L 5.765625 -6.703125 Z M 6.875 -6.703125 "/></g></g></g><g fill="#ffffff" fill-opacity="1"><g transform="translate(53.897746, 101.074859)"><g><path d="M 0.53125 -3.375 C 0.53125 -4.0625 0.664062 -4.660156 0.9375 -5.171875 C 1.21875 -5.691406 1.597656 -6.09375 2.078125 -6.375 C 2.566406 -6.664062 3.109375 -6.8125 3.703125 -6.8125 C 4.285156 -6.8125 4.789062 -6.679688 5.21875 -6.421875 C 5.65625 -6.171875 5.976562 -5.851562 6.1875 -5.46875 L 6.1875 -6.703125 L 7.3125 -6.703125 L 7.3125 0 L 6.1875 0 L 6.1875 -1.25 C 5.96875 -0.851562 5.640625 -0.523438 5.203125 -0.265625 C 4.773438 -0.015625 4.269531 0.109375 3.6875 0.109375 C 3.09375 0.109375 2.554688 -0.0351562 2.078125 -0.328125 C 1.597656 -0.617188 1.21875 -1.03125 0.9375 -1.5625 C 0.664062 -2.09375 0.53125 -2.695312 0.53125 -3.375 Z M 6.1875 -3.359375 C 6.1875 -3.867188 6.082031 -4.304688 5.875 -4.671875 C 5.675781 -5.046875 5.40625 -5.332031 5.0625 -5.53125 C 4.71875 -5.738281 4.335938 -5.84375 3.921875 -5.84375 C 3.503906 -5.84375 3.125 -5.742188 2.78125 -5.546875 C 2.4375 -5.347656 2.160156 -5.0625 1.953125 -4.6875 C 1.753906 -4.3125 1.65625 -3.875 1.65625 -3.375 C 1.65625 -2.863281 1.753906 -2.414062 1.953125 -2.03125 C 2.160156 -1.65625 2.4375 -1.367188 2.78125 -1.171875 C 3.125 -0.972656 3.503906 -0.875 3.921875 -0.875 C 4.335938 -0.875 4.71875 -0.972656 5.0625 -1.171875 C 5.40625 -1.367188 5.675781 -1.65625 5.875 -2.03125 C 6.082031 -2.414062 6.1875 -2.859375 6.1875 -3.359375 Z M 6.1875 -3.359375 "/></g></g></g><g fill="#ffffff" fill-opacity="1"><g transform="translate(61.828056, 101.074859)"><g><path d="M 2.046875 -9.046875 L 2.046875 0 L 0.9375 0 L 0.9375 -9.046875 Z M 2.046875 -9.046875 "/></g></g></g><g fill="#ffffff" fill-opacity="1"><g transform="translate(64.503998, 101.074859)"><g><path d="M 1.515625 -7.78125 C 1.304688 -7.78125 1.125 -7.851562 0.96875 -8 C 0.820312 -8.144531 0.75 -8.328125 0.75 -8.546875 C 0.75 -8.753906 0.820312 -8.929688 0.96875 -9.078125 C 1.125 -9.222656 1.304688 -9.296875 1.515625 -9.296875 C 1.722656 -9.296875 1.894531 -9.222656 2.03125 -9.078125 C 2.175781 -8.929688 2.25 -8.753906 2.25 -8.546875 C 2.25 -8.328125 2.175781 -8.144531 2.03125 -8 C 1.894531 -7.851562 1.722656 -7.78125 1.515625 -7.78125 Z M 2.046875 -6.703125 L 2.046875 0 L 0.9375 0 L 0.9375 -6.703125 Z M 2.046875 -6.703125 "/></g></g></g><g fill="#ffffff" fill-opacity="1"><g transform="translate(67.179941, 101.074859)"><g><path d="M 0.53125 -3.375 C 0.53125 -4.0625 0.664062 -4.660156 0.9375 -5.171875 C 1.21875 -5.691406 1.597656 -6.09375 2.078125 -6.375 C 2.566406 -6.664062 3.113281 -6.8125 3.71875 -6.8125 C 4.238281 -6.8125 4.722656 -6.6875 5.171875 -6.4375 C 5.617188 -6.195312 5.957031 -5.882812 6.1875 -5.5 L 6.1875 -9.046875 L 7.3125 -9.046875 L 7.3125 0 L 6.1875 0 L 6.1875 -1.265625 C 5.96875 -0.859375 5.640625 -0.523438 5.203125 -0.265625 C 4.773438 -0.015625 4.273438 0.109375 3.703125 0.109375 C 3.109375 0.109375 2.566406 -0.0351562 2.078125 -0.328125 C 1.597656 -0.617188 1.21875 -1.03125 0.9375 -1.5625 C 0.664062 -2.09375 0.53125 -2.695312 0.53125 -3.375 Z M 6.1875 -3.359375 C 6.1875 -3.867188 6.082031 -4.304688 5.875 -4.671875 C 5.675781 -5.046875 5.40625 -5.332031 5.0625 -5.53125 C 4.71875 -5.738281 4.335938 -5.84375 3.921875 -5.84375 C 3.503906 -5.84375 3.125 -5.742188 2.78125 -5.546875 C 2.4375 -5.347656 2.160156 -5.0625 1.953125 -4.6875 C 1.753906 -4.3125 1.65625 -3.875 1.65625 -3.375 C 1.65625 -2.863281 1.753906 -2.414062 1.953125 -2.03125 C 2.160156 -1.65625 2.4375 -1.367188 2.78125 -1.171875 C 3.125 -0.972656 3.503906 -0.875 3.921875 -0.875 C 4.335938 -0.875 4.71875 -0.972656 5.0625 -1.171875 C 5.40625 -1.367188 5.675781 -1.65625 5.875 -2.03125 C 6.082031 -2.414062 6.1875 -2.859375 6.1875 -3.359375 Z M 6.1875 -3.359375 "/></g></g></g><g fill="#ffffff" fill-opacity="1"><g transform="translate(75.110248, 101.074859)"><g><path d="M 0.53125 -3.375 C 0.53125 -4.0625 0.664062 -4.660156 0.9375 -5.171875 C 1.21875 -5.691406 1.597656 -6.09375 2.078125 -6.375 C 2.566406 -6.664062 3.109375 -6.8125 3.703125 -6.8125 C 4.285156 -6.8125 4.789062 -6.679688 5.21875 -6.421875 C 5.65625 -6.171875 5.976562 -5.851562 6.1875 -5.46875 L 6.1875 -6.703125 L 7.3125 -6.703125 L 7.3125 0 L 6.1875 0 L 6.1875 -1.25 C 5.96875 -0.851562 5.640625 -0.523438 5.203125 -0.265625 C 4.773438 -0.015625 4.269531 0.109375 3.6875 0.109375 C 3.09375 0.109375 2.554688 -0.0351562 2.078125 -0.328125 C 1.597656 -0.617188 1.21875 -1.03125 0.9375 -1.5625 C 0.664062 -2.09375 0.53125 -2.695312 0.53125 -3.375 Z M 6.1875 -3.359375 C 6.1875 -3.867188 6.082031 -4.304688 5.875 -4.671875 C 5.675781 -5.046875 5.40625 -5.332031 5.0625 -5.53125 C 4.71875 -5.738281 4.335938 -5.84375 3.921875 -5.84375 C 3.503906 -5.84375 3.125 -5.742188 2.78125 -5.546875 C 2.4375 -5.347656 2.160156 -5.0625 1.953125 -4.6875 C 1.753906 -4.3125 1.65625 -3.875 1.65625 -3.375 C 1.65625 -2.863281 1.753906 -2.414062 1.953125 -2.03125 C 2.160156 -1.65625 2.4375 -1.367188 2.78125 -1.171875 C 3.125 -0.972656 3.503906 -0.875 3.921875 -0.875 C 4.335938 -0.875 4.71875 -0.972656 5.0625 -1.171875 C 5.40625 -1.367188 5.675781 -1.65625 5.875 -2.03125 C 6.082031 -2.414062 6.1875 -2.859375 6.1875 -3.359375 Z M 6.1875 -3.359375 "/></g></g></g><g fill="#ffffff" fill-opacity="1"><g transform="translate(83.040558, 101.074859)"><g><path d="M 0.53125 -3.375 C 0.53125 -4.0625 0.664062 -4.660156 0.9375 -5.171875 C 1.21875 -5.691406 1.597656 -6.09375 2.078125 -6.375 C 2.566406 -6.664062 3.113281 -6.8125 3.71875 -6.8125 C 4.238281 -6.8125 4.722656 -6.6875 5.171875 -6.4375 C 5.617188 -6.195312 5.957031 -5.882812 6.1875 -5.5 L 6.1875 -9.046875 L 7.3125 -9.046875 L 7.3125 0 L 6.1875 0 L 6.1875 -1.265625 C 5.96875 -0.859375 5.640625 -0.523438 5.203125 -0.265625 C 4.773438 -0.015625 4.273438 0.109375 3.703125 0.109375 C 3.109375 0.109375 2.566406 -0.0351562 2.078125 -0.328125 C 1.597656 -0.617188 1.21875 -1.03125 0.9375 -1.5625 C 0.664062 -2.09375 0.53125 -2.695312 0.53125 -3.375 Z M 6.1875 -3.359375 C 6.1875 -3.867188 6.082031 -4.304688 5.875 -4.671875 C 5.675781 -5.046875 5.40625 -5.332031 5.0625 -5.53125 C 4.71875 -5.738281 4.335938 -5.84375 3.921875 -5.84375 C 3.503906 -5.84375 3.125 -5.742188 2.78125 -5.546875 C 2.4375 -5.347656 2.160156 -5.0625 1.953125 -4.6875 C 1.753906 -4.3125 1.65625 -3.875 1.65625 -3.375 C 1.65625 -2.863281 1.753906 -2.414062 1.953125 -2.03125 C 2.160156 -1.65625 2.4375 -1.367188 2.78125 -1.171875 C 3.125 -0.972656 3.503906 -0.875 3.921875 -0.875 C 4.335938 -0.875 4.71875 -0.972656 5.0625 -1.171875 C 5.40625 -1.367188 5.675781 -1.65625 5.875 -2.03125 C 6.082031 -2.414062 6.1875 -2.859375 6.1875 -3.359375 Z M 6.1875 -3.359375 "/></g></g></g><g fill="#ffffff" fill-opacity="1"><g transform="translate(90.970868, 101.074859)"><g><path d="M 7.046875 -3.609375 C 7.046875 -3.390625 7.035156 -3.164062 7.015625 -2.9375 L 1.65625 -2.9375 C 1.695312 -2.269531 1.921875 -1.75 2.328125 -1.375 C 2.742188 -1.007812 3.25 -0.828125 3.84375 -0.828125 C 4.320312 -0.828125 4.71875 -0.9375 5.03125 -1.15625 C 5.351562 -1.382812 5.582031 -1.6875 5.71875 -2.0625 L 6.921875 -2.0625 C 6.734375 -1.414062 6.367188 -0.890625 5.828125 -0.484375 C 5.296875 -0.0859375 4.632812 0.109375 3.84375 0.109375 C 3.207031 0.109375 2.632812 -0.03125 2.125 -0.3125 C 1.625 -0.601562 1.234375 -1.007812 0.953125 -1.53125 C 0.671875 -2.0625 0.53125 -2.671875 0.53125 -3.359375 C 0.53125 -4.054688 0.664062 -4.664062 0.9375 -5.1875 C 1.21875 -5.707031 1.609375 -6.109375 2.109375 -6.390625 C 2.609375 -6.671875 3.1875 -6.8125 3.84375 -6.8125 C 4.476562 -6.8125 5.035156 -6.671875 5.515625 -6.390625 C 6.003906 -6.109375 6.378906 -5.722656 6.640625 -5.234375 C 6.910156 -4.753906 7.046875 -4.210938 7.046875 -3.609375 Z M 5.90625 -3.84375 C 5.90625 -4.257812 5.8125 -4.617188 5.625 -4.921875 C 5.4375 -5.234375 5.179688 -5.46875 4.859375 -5.625 C 4.535156 -5.78125 4.175781 -5.859375 3.78125 -5.859375 C 3.21875 -5.859375 2.738281 -5.679688 2.34375 -5.328125 C 1.957031 -4.972656 1.734375 -4.476562 1.671875 -3.84375 Z M 5.90625 -3.84375 "/></g></g></g><g fill="#2c502f" fill-opacity="1"><g transform="translate(37.108461, 115.397957)"><g><path d="M 2.84375 -5.859375 C 3.050781 -6.171875 3.332031 -6.425781 3.6875 -6.625 C 4.050781 -6.820312 4.472656 -6.921875 4.953125 -6.921875 C 5.515625 -6.921875 6.019531 -6.773438 6.46875 -6.484375 C 6.925781 -6.203125 7.285156 -5.796875 7.546875 -5.265625 C 7.816406 -4.734375 7.953125 -4.117188 7.953125 -3.421875 C 7.953125 -2.722656 7.816406 -2.101562 7.546875 -1.5625 C 7.285156 -1.03125 6.925781 -0.617188 6.46875 -0.328125 C 6.019531 -0.046875 5.515625 0.09375 4.953125 0.09375 C 4.472656 0.09375 4.050781 0 3.6875 -0.1875 C 3.332031 -0.382812 3.050781 -0.640625 2.84375 -0.953125 L 2.84375 3.25 L 0.75 3.25 L 0.75 -6.8125 L 2.84375 -6.8125 Z M 5.828125 -3.421875 C 5.828125 -3.941406 5.679688 -4.347656 5.390625 -4.640625 C 5.097656 -4.941406 4.742188 -5.09375 4.328125 -5.09375 C 3.910156 -5.09375 3.554688 -4.941406 3.265625 -4.640625 C 2.972656 -4.335938 2.828125 -3.925781 2.828125 -3.40625 C 2.828125 -2.882812 2.972656 -2.472656 3.265625 -2.171875 C 3.554688 -1.867188 3.910156 -1.71875 4.328125 -1.71875 C 4.742188 -1.71875 5.097656 -1.867188 5.390625 -2.171875 C 5.679688 -2.484375 5.828125 -2.898438 5.828125 -3.421875 Z M 5.828125 -3.421875 "/></g></g></g><g fill="#2c502f" fill-opacity="1"><g transform="translate(45.075426, 115.397957)"><g><path d="M 2.84375 -5.6875 C 3.09375 -6.0625 3.398438 -6.351562 3.765625 -6.5625 C 4.128906 -6.78125 4.535156 -6.890625 4.984375 -6.890625 L 4.984375 -4.6875 L 4.40625 -4.6875 C 3.882812 -4.6875 3.492188 -4.570312 3.234375 -4.34375 C 2.972656 -4.113281 2.84375 -3.722656 2.84375 -3.171875 L 2.84375 0 L 0.75 0 L 0.75 -6.8125 L 2.84375 -6.8125 Z M 2.84375 -5.6875 "/></g></g></g><g fill="#2c502f" fill-opacity="1"><g transform="translate(49.975313, 115.397957)"><g><path d="M 7.1875 -3.515625 C 7.1875 -3.316406 7.171875 -3.113281 7.140625 -2.90625 L 2.421875 -2.90625 C 2.453125 -2.476562 2.585938 -2.148438 2.828125 -1.921875 C 3.066406 -1.703125 3.363281 -1.59375 3.71875 -1.59375 C 4.238281 -1.59375 4.597656 -1.816406 4.796875 -2.265625 L 7.03125 -2.265625 C 6.914062 -1.816406 6.707031 -1.410156 6.40625 -1.046875 C 6.113281 -0.691406 5.742188 -0.410156 5.296875 -0.203125 C 4.847656 -0.00390625 4.34375 0.09375 3.78125 0.09375 C 3.113281 0.09375 2.519531 -0.046875 2 -0.328125 C 1.476562 -0.609375 1.070312 -1.015625 0.78125 -1.546875 C 0.488281 -2.078125 0.34375 -2.695312 0.34375 -3.40625 C 0.34375 -4.113281 0.484375 -4.734375 0.765625 -5.265625 C 1.054688 -5.796875 1.460938 -6.203125 1.984375 -6.484375 C 2.515625 -6.773438 3.113281 -6.921875 3.78125 -6.921875 C 4.445312 -6.921875 5.035156 -6.78125 5.546875 -6.5 C 6.054688 -6.21875 6.457031 -5.820312 6.75 -5.3125 C 7.039062 -4.800781 7.1875 -4.203125 7.1875 -3.515625 Z M 5.046875 -4.0625 C 5.046875 -4.425781 4.921875 -4.710938 4.671875 -4.921875 C 4.429688 -5.128906 4.128906 -5.234375 3.765625 -5.234375 C 3.410156 -5.234375 3.113281 -5.128906 2.875 -4.921875 C 2.632812 -4.722656 2.488281 -4.4375 2.4375 -4.0625 Z M 5.046875 -4.0625 "/></g></g></g><g fill="#2c502f" fill-opacity="1"><g transform="translate(57.172454, 115.397957)"><g><path d="M 9.453125 -6.890625 C 10.304688 -6.890625 10.984375 -6.632812 11.484375 -6.125 C 11.984375 -5.613281 12.234375 -4.898438 12.234375 -3.984375 L 12.234375 0 L 10.15625 0 L 10.15625 -3.703125 C 10.15625 -4.140625 10.035156 -4.476562 9.796875 -4.71875 C 9.566406 -4.957031 9.25 -5.078125 8.84375 -5.078125 C 8.4375 -5.078125 8.113281 -4.957031 7.875 -4.71875 C 7.644531 -4.476562 7.53125 -4.140625 7.53125 -3.703125 L 7.53125 0 L 5.46875 0 L 5.46875 -3.703125 C 5.46875 -4.140625 5.347656 -4.476562 5.109375 -4.71875 C 4.878906 -4.957031 4.5625 -5.078125 4.15625 -5.078125 C 3.75 -5.078125 3.425781 -4.957031 3.1875 -4.71875 C 2.957031 -4.476562 2.84375 -4.140625 2.84375 -3.703125 L 2.84375 0 L 0.75 0 L 0.75 -6.8125 L 2.84375 -6.8125 L 2.84375 -5.96875 C 3.0625 -6.25 3.335938 -6.472656 3.671875 -6.640625 C 4.015625 -6.804688 4.40625 -6.890625 4.84375 -6.890625 C 5.351562 -6.890625 5.804688 -6.78125 6.203125 -6.5625 C 6.609375 -6.34375 6.925781 -6.03125 7.15625 -5.625 C 7.394531 -6 7.71875 -6.300781 8.125 -6.53125 C 8.53125 -6.769531 8.972656 -6.890625 9.453125 -6.890625 Z M 9.453125 -6.890625 "/></g></g></g><g fill="#2c502f" fill-opacity="1"><g transform="translate(69.782806, 115.397957)"><g><path d="M 1.8125 -7.53125 C 1.445312 -7.53125 1.144531 -7.632812 0.90625 -7.84375 C 0.675781 -8.0625 0.5625 -8.332031 0.5625 -8.65625 C 0.5625 -8.976562 0.675781 -9.242188 0.90625 -9.453125 C 1.144531 -9.671875 1.445312 -9.78125 1.8125 -9.78125 C 2.164062 -9.78125 2.457031 -9.671875 2.6875 -9.453125 C 2.925781 -9.242188 3.046875 -8.976562 3.046875 -8.65625 C 3.046875 -8.332031 2.925781 -8.0625 2.6875 -7.84375 C 2.457031 -7.632812 2.164062 -7.53125 1.8125 -7.53125 Z M 2.84375 -6.8125 L 2.84375 0 L 0.75 0 L 0.75 -6.8125 Z M 2.84375 -6.8125 "/></g></g></g><g fill="#2c502f" fill-opacity="1"><g transform="translate(73.057506, 115.397957)"><g><path d="M 7.484375 -6.8125 L 7.484375 0 L 5.40625 0 L 5.40625 -0.921875 C 5.1875 -0.617188 4.894531 -0.375 4.53125 -0.1875 C 4.175781 -0.0078125 3.773438 0.078125 3.328125 0.078125 C 2.804688 0.078125 2.347656 -0.0351562 1.953125 -0.265625 C 1.554688 -0.503906 1.25 -0.84375 1.03125 -1.28125 C 0.8125 -1.71875 0.703125 -2.234375 0.703125 -2.828125 L 0.703125 -6.8125 L 2.78125 -6.8125 L 2.78125 -3.109375 C 2.78125 -2.660156 2.894531 -2.304688 3.125 -2.046875 C 3.363281 -1.796875 3.679688 -1.671875 4.078125 -1.671875 C 4.484375 -1.671875 4.804688 -1.796875 5.046875 -2.046875 C 5.285156 -2.304688 5.40625 -2.660156 5.40625 -3.109375 L 5.40625 -6.8125 Z M 7.484375 -6.8125 "/></g></g></g><g fill="#2c502f" fill-opacity="1"><g transform="translate(80.963372, 115.397957)"><g><path d="M 9.453125 -6.890625 C 10.304688 -6.890625 10.984375 -6.632812 11.484375 -6.125 C 11.984375 -5.613281 12.234375 -4.898438 12.234375 -3.984375 L 12.234375 0 L 10.15625 0 L 10.15625 -3.703125 C 10.15625 -4.140625 10.035156 -4.476562 9.796875 -4.71875 C 9.566406 -4.957031 9.25 -5.078125 8.84375 -5.078125 C 8.4375 -5.078125 8.113281 -4.957031 7.875 -4.71875 C 7.644531 -4.476562 7.53125 -4.140625 7.53125 -3.703125 L 7.53125 0 L 5.46875 0 L 5.46875 -3.703125 C 5.46875 -4.140625 5.347656 -4.476562 5.109375 -4.71875 C 4.878906 -4.957031 4.5625 -5.078125 4.15625 -5.078125 C 3.75 -5.078125 3.425781 -4.957031 3.1875 -4.71875 C 2.957031 -4.476562 2.84375 -4.140625 2.84375 -3.703125 L 2.84375 0 L 0.75 0 L 0.75 -6.8125 L 2.84375 -6.8125 L 2.84375 -5.96875 C 3.0625 -6.25 3.335938 -6.472656 3.671875 -6.640625 C 4.015625 -6.804688 4.40625 -6.890625 4.84375 -6.890625 C 5.351562 -6.890625 5.804688 -6.78125 6.203125 -6.5625 C 6.609375 -6.34375 6.925781 -6.03125 7.15625 -5.625 C 7.394531 -6 7.71875 -6.300781 8.125 -6.53125 C 8.53125 -6.769531 8.972656 -6.890625 9.453125 -6.890625 Z M 9.453125 -6.890625 "/></g></g></g><g fill="#ffffff" fill-opacity="1"><g transform="translate(93.577276, 115.397957)"><g/></g></g><g fill="#ffffff" fill-opacity="1"><g transform="translate(95.842115, 115.397957)"><g><path d="M 0.53125 -3.375 C 0.53125 -4.0625 0.664062 -4.660156 0.9375 -5.171875 C 1.21875 -5.691406 1.597656 -6.09375 2.078125 -6.375 C 2.566406 -6.664062 3.109375 -6.8125 3.703125 -6.8125 C 4.285156 -6.8125 4.789062 -6.679688 5.21875 -6.421875 C 5.65625 -6.171875 5.976562 -5.851562 6.1875 -5.46875 L 6.1875 -6.703125 L 7.3125 -6.703125 L 7.3125 0 L 6.1875 0 L 6.1875 -1.25 C 5.96875 -0.851562 5.640625 -0.523438 5.203125 -0.265625 C 4.773438 -0.015625 4.269531 0.109375 3.6875 0.109375 C 3.09375 0.109375 2.554688 -0.0351562 2.078125 -0.328125 C 1.597656 -0.617188 1.21875 -1.03125 0.9375 -1.5625 C 0.664062 -2.09375 0.53125 -2.695312 0.53125 -3.375 Z M 6.1875 -3.359375 C 6.1875 -3.867188 6.082031 -4.304688 5.875 -4.671875 C 5.675781 -5.046875 5.40625 -5.332031 5.0625 -5.53125 C 4.71875 -5.738281 4.335938 -5.84375 3.921875 -5.84375 C 3.503906 -5.84375 3.125 -5.742188 2.78125 -5.546875 C 2.4375 -5.347656 2.160156 -5.0625 1.953125 -4.6875 C 1.753906 -4.3125 1.65625 -3.875 1.65625 -3.375 C 1.65625 -2.863281 1.753906 -2.414062 1.953125 -2.03125 C 2.160156 -1.65625 2.4375 -1.367188 2.78125 -1.171875 C 3.125 -0.972656 3.503906 -0.875 3.921875 -0.875 C 4.335938 -0.875 4.71875 -0.972656 5.0625 -1.171875 C 5.40625 -1.367188 5.675781 -1.65625 5.875 -2.03125 C 6.082031 -2.414062 6.1875 -2.859375 6.1875 -3.359375 Z M 6.1875 -3.359375 "/></g></g></g><g fill="#ffffff" fill-opacity="1"><g transform="translate(37.108461, 129.721055)"><g><path d="M 2.046875 -5.46875 C 2.265625 -5.84375 2.59375 -6.160156 3.03125 -6.421875 C 3.46875 -6.679688 3.976562 -6.8125 4.5625 -6.8125 C 5.15625 -6.8125 5.691406 -6.664062 6.171875 -6.375 C 6.660156 -6.09375 7.039062 -5.691406 7.3125 -5.171875 C 7.59375 -4.660156 7.734375 -4.0625 7.734375 -3.375 C 7.734375 -2.695312 7.59375 -2.09375 7.3125 -1.5625 C 7.039062 -1.03125 6.660156 -0.617188 6.171875 -0.328125 C 5.691406 -0.0351562 5.15625 0.109375 4.5625 0.109375 C 3.988281 0.109375 3.484375 -0.015625 3.046875 -0.265625 C 2.609375 -0.523438 2.273438 -0.847656 2.046875 -1.234375 L 2.046875 3.171875 L 0.9375 3.171875 L 0.9375 -6.703125 L 2.046875 -6.703125 Z M 6.59375 -3.375 C 6.59375 -3.875 6.488281 -4.3125 6.28125 -4.6875 C 6.082031 -5.0625 5.8125 -5.347656 5.46875 -5.546875 C 5.125 -5.742188 4.742188 -5.84375 4.328125 -5.84375 C 3.921875 -5.84375 3.539062 -5.738281 3.1875 -5.53125 C 2.84375 -5.332031 2.566406 -5.046875 2.359375 -4.671875 C 2.148438 -4.296875 2.046875 -3.859375 2.046875 -3.359375 C 2.046875 -2.859375 2.148438 -2.414062 2.359375 -2.03125 C 2.566406 -1.65625 2.84375 -1.367188 3.1875 -1.171875 C 3.539062 -0.972656 3.921875 -0.875 4.328125 -0.875 C 4.742188 -0.875 5.125 -0.972656 5.46875 -1.171875 C 5.8125 -1.367188 6.082031 -1.65625 6.28125 -2.03125 C 6.488281 -2.414062 6.59375 -2.863281 6.59375 -3.375 Z M 6.59375 -3.375 "/></g></g></g><g fill="#ffffff" fill-opacity="1"><g transform="translate(45.038771, 129.721055)"><g><path d="M 2.046875 -5.609375 C 2.242188 -5.992188 2.523438 -6.289062 2.890625 -6.5 C 3.253906 -6.707031 3.695312 -6.8125 4.21875 -6.8125 L 4.21875 -5.671875 L 3.921875 -5.671875 C 2.671875 -5.671875 2.046875 -4.992188 2.046875 -3.640625 L 2.046875 0 L 0.9375 0 L 0.9375 -6.703125 L 2.046875 -6.703125 Z M 2.046875 -5.609375 "/></g></g></g><g fill="#ffffff" fill-opacity="1"><g transform="translate(49.266589, 129.721055)"><g><path d="M 7.046875 -3.609375 C 7.046875 -3.390625 7.035156 -3.164062 7.015625 -2.9375 L 1.65625 -2.9375 C 1.695312 -2.269531 1.921875 -1.75 2.328125 -1.375 C 2.742188 -1.007812 3.25 -0.828125 3.84375 -0.828125 C 4.320312 -0.828125 4.71875 -0.9375 5.03125 -1.15625 C 5.351562 -1.382812 5.582031 -1.6875 5.71875 -2.0625 L 6.921875 -2.0625 C 6.734375 -1.414062 6.367188 -0.890625 5.828125 -0.484375 C 5.296875 -0.0859375 4.632812 0.109375 3.84375 0.109375 C 3.207031 0.109375 2.632812 -0.03125 2.125 -0.3125 C 1.625 -0.601562 1.234375 -1.007812 0.953125 -1.53125 C 0.671875 -2.0625 0.53125 -2.671875 0.53125 -3.359375 C 0.53125 -4.054688 0.664062 -4.664062 0.9375 -5.1875 C 1.21875 -5.707031 1.609375 -6.109375 2.109375 -6.390625 C 2.609375 -6.671875 3.1875 -6.8125 3.84375 -6.8125 C 4.476562 -6.8125 5.035156 -6.671875 5.515625 -6.390625 C 6.003906 -6.109375 6.378906 -5.722656 6.640625 -5.234375 C 6.910156 -4.753906 7.046875 -4.210938 7.046875 -3.609375 Z M 5.90625 -3.84375 C 5.90625 -4.257812 5.8125 -4.617188 5.625 -4.921875 C 5.4375 -5.234375 5.179688 -5.46875 4.859375 -5.625 C 4.535156 -5.78125 4.175781 -5.859375 3.78125 -5.859375 C 3.21875 -5.859375 2.738281 -5.679688 2.34375 -5.328125 C 1.957031 -4.972656 1.734375 -4.476562 1.671875 -3.84375 Z M 5.90625 -3.84375 "/></g></g></g><g fill="#ffffff" fill-opacity="1"><g transform="translate(56.512607, 129.721055)"><g><path d="M 3.78125 -0.828125 C 4.269531 -0.828125 4.675781 -0.941406 5 -1.171875 C 5.332031 -1.398438 5.5625 -1.726562 5.6875 -2.15625 L 6.875 -2.15625 C 6.71875 -1.519531 6.398438 -1 5.921875 -0.59375 C 5.441406 -0.1875 4.84375 0.0390625 4.125 0.09375 L 4.125 0.703125 C 4.601562 0.703125 4.984375 0.804688 5.265625 1.015625 C 5.554688 1.222656 5.703125 1.523438 5.703125 1.921875 C 5.703125 2.304688 5.5625 2.609375 5.28125 2.828125 C 5.007812 3.054688 4.65625 3.171875 4.21875 3.171875 L 2.8125 3.171875 L 2.8125 2.453125 L 4 2.453125 C 4.269531 2.453125 4.46875 2.410156 4.59375 2.328125 C 4.71875 2.253906 4.78125 2.117188 4.78125 1.921875 C 4.78125 1.734375 4.71875 1.597656 4.59375 1.515625 C 4.46875 1.429688 4.269531 1.390625 4 1.390625 L 3.390625 1.390625 L 3.390625 0.078125 C 2.828125 0.0234375 2.328125 -0.144531 1.890625 -0.4375 C 1.460938 -0.738281 1.128906 -1.140625 0.890625 -1.640625 C 0.648438 -2.140625 0.53125 -2.710938 0.53125 -3.359375 C 0.53125 -4.054688 0.664062 -4.660156 0.9375 -5.171875 C 1.21875 -5.691406 1.601562 -6.09375 2.09375 -6.375 C 2.582031 -6.664062 3.144531 -6.8125 3.78125 -6.8125 C 4.601562 -6.8125 5.28125 -6.609375 5.8125 -6.203125 C 6.351562 -5.804688 6.707031 -5.253906 6.875 -4.546875 L 5.6875 -4.546875 C 5.570312 -4.953125 5.347656 -5.269531 5.015625 -5.5 C 4.679688 -5.738281 4.269531 -5.859375 3.78125 -5.859375 C 3.144531 -5.859375 2.628906 -5.640625 2.234375 -5.203125 C 1.847656 -4.773438 1.65625 -4.160156 1.65625 -3.359375 C 1.65625 -2.554688 1.847656 -1.929688 2.234375 -1.484375 C 2.628906 -1.046875 3.144531 -0.828125 3.78125 -0.828125 Z M 3.78125 -0.828125 "/></g></g></g><g fill="#ffffff" fill-opacity="1"><g transform="translate(63.599774, 129.721055)"><g><path d="M 3.859375 0.109375 C 3.234375 0.109375 2.664062 -0.03125 2.15625 -0.3125 C 1.644531 -0.601562 1.242188 -1.007812 0.953125 -1.53125 C 0.671875 -2.0625 0.53125 -2.671875 0.53125 -3.359375 C 0.53125 -4.046875 0.675781 -4.648438 0.96875 -5.171875 C 1.269531 -5.703125 1.675781 -6.109375 2.1875 -6.390625 C 2.695312 -6.671875 3.269531 -6.8125 3.90625 -6.8125 C 4.539062 -6.8125 5.113281 -6.671875 5.625 -6.390625 C 6.144531 -6.109375 6.550781 -5.707031 6.84375 -5.1875 C 7.144531 -4.664062 7.296875 -4.054688 7.296875 -3.359375 C 7.296875 -2.671875 7.140625 -2.0625 6.828125 -1.53125 C 6.523438 -1.007812 6.113281 -0.601562 5.59375 -0.3125 C 5.070312 -0.03125 4.492188 0.109375 3.859375 0.109375 Z M 3.859375 -0.875 C 4.253906 -0.875 4.628906 -0.960938 4.984375 -1.140625 C 5.335938 -1.328125 5.617188 -1.609375 5.828125 -1.984375 C 6.046875 -2.359375 6.15625 -2.816406 6.15625 -3.359375 C 6.15625 -3.898438 6.046875 -4.359375 5.828125 -4.734375 C 5.617188 -5.109375 5.34375 -5.382812 5 -5.5625 C 4.664062 -5.75 4.296875 -5.84375 3.890625 -5.84375 C 3.484375 -5.84375 3.109375 -5.75 2.765625 -5.5625 C 2.429688 -5.382812 2.160156 -5.109375 1.953125 -4.734375 C 1.753906 -4.359375 1.65625 -3.898438 1.65625 -3.359375 C 1.65625 -2.816406 1.753906 -2.359375 1.953125 -1.984375 C 2.160156 -1.609375 2.429688 -1.328125 2.765625 -1.140625 C 3.097656 -0.960938 3.460938 -0.875 3.859375 -0.875 Z M 3.859375 -0.875 "/></g></g></g><g fill="#ffffff" fill-opacity="1"><g transform="translate(71.09018, 129.721055)"><g><path d="M 3.3125 0.109375 C 2.800781 0.109375 2.335938 0.0195312 1.921875 -0.15625 C 1.515625 -0.332031 1.191406 -0.578125 0.953125 -0.890625 C 0.722656 -1.203125 0.597656 -1.5625 0.578125 -1.96875 L 1.71875 -1.96875 C 1.75 -1.632812 1.90625 -1.359375 2.1875 -1.140625 C 2.46875 -0.929688 2.835938 -0.828125 3.296875 -0.828125 C 3.722656 -0.828125 4.054688 -0.921875 4.296875 -1.109375 C 4.546875 -1.296875 4.671875 -1.535156 4.671875 -1.828125 C 4.671875 -2.117188 4.539062 -2.332031 4.28125 -2.46875 C 4.019531 -2.613281 3.613281 -2.753906 3.0625 -2.890625 C 2.570312 -3.023438 2.164062 -3.160156 1.84375 -3.296875 C 1.53125 -3.429688 1.257812 -3.628906 1.03125 -3.890625 C 0.8125 -4.148438 0.703125 -4.5 0.703125 -4.9375 C 0.703125 -5.28125 0.800781 -5.59375 1 -5.875 C 1.207031 -6.164062 1.5 -6.394531 1.875 -6.5625 C 2.25 -6.726562 2.679688 -6.8125 3.171875 -6.8125 C 3.910156 -6.8125 4.503906 -6.625 4.953125 -6.25 C 5.410156 -5.875 5.65625 -5.359375 5.6875 -4.703125 L 4.578125 -4.703125 C 4.554688 -5.054688 4.414062 -5.335938 4.15625 -5.546875 C 3.90625 -5.753906 3.5625 -5.859375 3.125 -5.859375 C 2.726562 -5.859375 2.410156 -5.773438 2.171875 -5.609375 C 1.941406 -5.441406 1.828125 -5.21875 1.828125 -4.9375 C 1.828125 -4.71875 1.894531 -4.535156 2.03125 -4.390625 C 2.175781 -4.242188 2.351562 -4.128906 2.5625 -4.046875 C 2.78125 -3.960938 3.082031 -3.867188 3.46875 -3.765625 C 3.945312 -3.628906 4.335938 -3.5 4.640625 -3.375 C 4.941406 -3.25 5.203125 -3.0625 5.421875 -2.8125 C 5.640625 -2.5625 5.75 -2.234375 5.75 -1.828125 C 5.75 -1.453125 5.644531 -1.117188 5.4375 -0.828125 C 5.238281 -0.535156 4.953125 -0.304688 4.578125 -0.140625 C 4.210938 0.0234375 3.789062 0.109375 3.3125 0.109375 Z M 3.3125 0.109375 "/></g></g></g><g fill="#ffffff" fill-opacity="1"><g transform="translate(37.108461, 144.044153)"><g><path d="M 0.34375 -3.421875 C 0.34375 -4.117188 0.472656 -4.734375 0.734375 -5.265625 C 1.003906 -5.796875 1.363281 -6.203125 1.8125 -6.484375 C 2.269531 -6.773438 2.78125 -6.921875 3.34375 -6.921875 C 3.820312 -6.921875 4.242188 -6.820312 4.609375 -6.625 C 4.972656 -6.425781 5.253906 -6.171875 5.453125 -5.859375 L 5.453125 -6.8125 L 7.53125 -6.8125 L 7.53125 0 L 5.453125 0 L 5.453125 -0.96875 C 5.242188 -0.644531 4.957031 -0.382812 4.59375 -0.1875 C 4.238281 0 3.816406 0.09375 3.328125 0.09375 C 2.773438 0.09375 2.269531 -0.046875 1.8125 -0.328125 C 1.363281 -0.617188 1.003906 -1.03125 0.734375 -1.5625 C 0.472656 -2.101562 0.34375 -2.722656 0.34375 -3.421875 Z M 5.453125 -3.40625 C 5.453125 -3.925781 5.304688 -4.335938 5.015625 -4.640625 C 4.722656 -4.941406 4.367188 -5.09375 3.953125 -5.09375 C 3.535156 -5.09375 3.179688 -4.941406 2.890625 -4.640625 C 2.609375 -4.347656 2.46875 -3.941406 2.46875 -3.421875 C 2.46875 -2.898438 2.609375 -2.484375 2.890625 -2.171875 C 3.179688 -1.867188 3.535156 -1.71875 3.953125 -1.71875 C 4.367188 -1.71875 4.722656 -1.867188 5.015625 -2.171875 C 5.304688 -2.472656 5.453125 -2.882812 5.453125 -3.40625 Z M 5.453125 -3.40625 "/></g></g></g><g fill="#ffffff" fill-opacity="1"><g transform="translate(45.075426, 144.044153)"><g><path d="M 0.34375 -3.40625 C 0.34375 -4.113281 0.484375 -4.734375 0.765625 -5.265625 C 1.054688 -5.796875 1.460938 -6.203125 1.984375 -6.484375 C 2.503906 -6.773438 3.097656 -6.921875 3.765625 -6.921875 C 4.617188 -6.921875 5.332031 -6.695312 5.90625 -6.25 C 6.476562 -5.800781 6.851562 -5.164062 7.03125 -4.34375 L 4.8125 -4.34375 C 4.625 -4.863281 4.265625 -5.125 3.734375 -5.125 C 3.347656 -5.125 3.039062 -4.972656 2.8125 -4.671875 C 2.582031 -4.378906 2.46875 -3.957031 2.46875 -3.40625 C 2.46875 -2.851562 2.582031 -2.425781 2.8125 -2.125 C 3.039062 -1.832031 3.347656 -1.6875 3.734375 -1.6875 C 4.265625 -1.6875 4.625 -1.945312 4.8125 -2.46875 L 7.03125 -2.46875 C 6.851562 -1.664062 6.472656 -1.035156 5.890625 -0.578125 C 5.316406 -0.128906 4.609375 0.09375 3.765625 0.09375 C 3.097656 0.09375 2.503906 -0.046875 1.984375 -0.328125 C 1.460938 -0.609375 1.054688 -1.015625 0.765625 -1.546875 C 0.484375 -2.078125 0.34375 -2.695312 0.34375 -3.40625 Z M 0.34375 -3.40625 "/></g></g></g><g fill="#ffffff" fill-opacity="1"><g transform="translate(52.138149, 144.044153)"><g><path d="M 7.1875 -3.515625 C 7.1875 -3.316406 7.171875 -3.113281 7.140625 -2.90625 L 2.421875 -2.90625 C 2.453125 -2.476562 2.585938 -2.148438 2.828125 -1.921875 C 3.066406 -1.703125 3.363281 -1.59375 3.71875 -1.59375 C 4.238281 -1.59375 4.597656 -1.816406 4.796875 -2.265625 L 7.03125 -2.265625 C 6.914062 -1.816406 6.707031 -1.410156 6.40625 -1.046875 C 6.113281 -0.691406 5.742188 -0.410156 5.296875 -0.203125 C 4.847656 -0.00390625 4.34375 0.09375 3.78125 0.09375 C 3.113281 0.09375 2.519531 -0.046875 2 -0.328125 C 1.476562 -0.609375 1.070312 -1.015625 0.78125 -1.546875 C 0.488281 -2.078125 0.34375 -2.695312 0.34375 -3.40625 C 0.34375 -4.113281 0.484375 -4.734375 0.765625 -5.265625 C 1.054688 -5.796875 1.460938 -6.203125 1.984375 -6.484375 C 2.515625 -6.773438 3.113281 -6.921875 3.78125 -6.921875 C 4.445312 -6.921875 5.035156 -6.78125 5.546875 -6.5 C 6.054688 -6.21875 6.457031 -5.820312 6.75 -5.3125 C 7.039062 -4.800781 7.1875 -4.203125 7.1875 -3.515625 Z M 5.046875 -4.0625 C 5.046875 -4.425781 4.921875 -4.710938 4.671875 -4.921875 C 4.429688 -5.128906 4.128906 -5.234375 3.765625 -5.234375 C 3.410156 -5.234375 3.113281 -5.128906 2.875 -4.921875 C 2.632812 -4.722656 2.488281 -4.4375 2.4375 -4.0625 Z M 5.046875 -4.0625 "/></g></g></g><g fill="#ffffff" fill-opacity="1"><g transform="translate(59.335291, 144.044153)"><g><path d="M 3.53125 0.09375 C 2.9375 0.09375 2.40625 -0.00390625 1.9375 -0.203125 C 1.476562 -0.410156 1.113281 -0.691406 0.84375 -1.046875 C 0.570312 -1.398438 0.421875 -1.796875 0.390625 -2.234375 L 2.453125 -2.234375 C 2.484375 -1.992188 2.59375 -1.800781 2.78125 -1.65625 C 2.976562 -1.507812 3.21875 -1.4375 3.5 -1.4375 C 3.757812 -1.4375 3.960938 -1.488281 4.109375 -1.59375 C 4.253906 -1.695312 4.328125 -1.828125 4.328125 -1.984375 C 4.328125 -2.179688 4.222656 -2.328125 4.015625 -2.421875 C 3.816406 -2.515625 3.488281 -2.617188 3.03125 -2.734375 C 2.539062 -2.847656 2.128906 -2.96875 1.796875 -3.09375 C 1.472656 -3.21875 1.191406 -3.414062 0.953125 -3.6875 C 0.722656 -3.96875 0.609375 -4.335938 0.609375 -4.796875 C 0.609375 -5.191406 0.71875 -5.550781 0.9375 -5.875 C 1.15625 -6.195312 1.472656 -6.453125 1.890625 -6.640625 C 2.304688 -6.828125 2.804688 -6.921875 3.390625 -6.921875 C 4.242188 -6.921875 4.914062 -6.707031 5.40625 -6.28125 C 5.894531 -5.851562 6.175781 -5.289062 6.25 -4.59375 L 4.328125 -4.59375 C 4.296875 -4.832031 4.191406 -5.019531 4.015625 -5.15625 C 3.835938 -5.289062 3.609375 -5.359375 3.328125 -5.359375 C 3.078125 -5.359375 2.882812 -5.3125 2.75 -5.21875 C 2.625 -5.125 2.5625 -5 2.5625 -4.84375 C 2.5625 -4.644531 2.664062 -4.492188 2.875 -4.390625 C 3.082031 -4.296875 3.40625 -4.203125 3.84375 -4.109375 C 4.351562 -3.972656 4.765625 -3.84375 5.078125 -3.71875 C 5.398438 -3.59375 5.679688 -3.390625 5.921875 -3.109375 C 6.160156 -2.828125 6.285156 -2.453125 6.296875 -1.984375 C 6.296875 -1.578125 6.179688 -1.21875 5.953125 -0.90625 C 5.734375 -0.59375 5.410156 -0.347656 4.984375 -0.171875 C 4.566406 0.00390625 4.082031 0.09375 3.53125 0.09375 Z M 3.53125 0.09375 "/></g></g></g><g fill="#ffffff" fill-opacity="1"><g transform="translate(65.823701, 144.044153)"><g><path d="M 3.53125 0.09375 C 2.9375 0.09375 2.40625 -0.00390625 1.9375 -0.203125 C 1.476562 -0.410156 1.113281 -0.691406 0.84375 -1.046875 C 0.570312 -1.398438 0.421875 -1.796875 0.390625 -2.234375 L 2.453125 -2.234375 C 2.484375 -1.992188 2.59375 -1.800781 2.78125 -1.65625 C 2.976562 -1.507812 3.21875 -1.4375 3.5 -1.4375 C 3.757812 -1.4375 3.960938 -1.488281 4.109375 -1.59375 C 4.253906 -1.695312 4.328125 -1.828125 4.328125 -1.984375 C 4.328125 -2.179688 4.222656 -2.328125 4.015625 -2.421875 C 3.816406 -2.515625 3.488281 -2.617188 3.03125 -2.734375 C 2.539062 -2.847656 2.128906 -2.96875 1.796875 -3.09375 C 1.472656 -3.21875 1.191406 -3.414062 0.953125 -3.6875 C 0.722656 -3.96875 0.609375 -4.335938 0.609375 -4.796875 C 0.609375 -5.191406 0.71875 -5.550781 0.9375 -5.875 C 1.15625 -6.195312 1.472656 -6.453125 1.890625 -6.640625 C 2.304688 -6.828125 2.804688 -6.921875 3.390625 -6.921875 C 4.242188 -6.921875 4.914062 -6.707031 5.40625 -6.28125 C 5.894531 -5.851562 6.175781 -5.289062 6.25 -4.59375 L 4.328125 -4.59375 C 4.296875 -4.832031 4.191406 -5.019531 4.015625 -5.15625 C 3.835938 -5.289062 3.609375 -5.359375 3.328125 -5.359375 C 3.078125 -5.359375 2.882812 -5.3125 2.75 -5.21875 C 2.625 -5.125 2.5625 -5 2.5625 -4.84375 C 2.5625 -4.644531 2.664062 -4.492188 2.875 -4.390625 C 3.082031 -4.296875 3.40625 -4.203125 3.84375 -4.109375 C 4.351562 -3.972656 4.765625 -3.84375 5.078125 -3.71875 C 5.398438 -3.59375 5.679688 -3.390625 5.921875 -3.109375 C 6.160156 -2.828125 6.285156 -2.453125 6.296875 -1.984375 C 6.296875 -1.578125 6.179688 -1.21875 5.953125 -0.90625 C 5.734375 -0.59375 5.410156 -0.347656 4.984375 -0.171875 C 4.566406 0.00390625 4.082031 0.09375 3.53125 0.09375 Z M 3.53125 0.09375 "/></g></g></g><g fill="#ffffff" fill-opacity="1"><g transform="translate(72.312111, 144.044153)"><g><path d="M 3 -6.8125 L 3 0 L 0.921875 0 L 0.921875 -6.8125 Z M 3.375 -8.515625 L 0.4375 -7.28125 L 0.4375 -8.71875 L 3.375 -10.140625 Z M 3.375 -8.515625 "/></g></g></g><g fill="#ffffff" fill-opacity="1"><g transform="translate(75.904514, 144.044153)"><g><path d="M 3.828125 -1.953125 L 5.296875 -6.8125 L 7.53125 -6.8125 L 5.109375 0 L 2.53125 0 L 0.109375 -6.8125 L 2.34375 -6.8125 Z M 3.828125 -1.953125 "/></g></g></g><g fill="#ffffff" fill-opacity="1"><g transform="translate(83.223846, 144.044153)"><g><path d="M 7.1875 -3.515625 C 7.1875 -3.316406 7.171875 -3.113281 7.140625 -2.90625 L 2.421875 -2.90625 C 2.453125 -2.476562 2.585938 -2.148438 2.828125 -1.921875 C 3.066406 -1.703125 3.363281 -1.59375 3.71875 -1.59375 C 4.238281 -1.59375 4.597656 -1.816406 4.796875 -2.265625 L 7.03125 -2.265625 C 6.914062 -1.816406 6.707031 -1.410156 6.40625 -1.046875 C 6.113281 -0.691406 5.742188 -0.410156 5.296875 -0.203125 C 4.847656 -0.00390625 4.34375 0.09375 3.78125 0.09375 C 3.113281 0.09375 2.519531 -0.046875 2 -0.328125 C 1.476562 -0.609375 1.070312 -1.015625 0.78125 -1.546875 C 0.488281 -2.078125 0.34375 -2.695312 0.34375 -3.40625 C 0.34375 -4.113281 0.484375 -4.734375 0.765625 -5.265625 C 1.054688 -5.796875 1.460938 -6.203125 1.984375 -6.484375 C 2.515625 -6.773438 3.113281 -6.921875 3.78125 -6.921875 C 4.445312 -6.921875 5.035156 -6.78125 5.546875 -6.5 C 6.054688 -6.21875 6.457031 -5.820312 6.75 -5.3125 C 7.039062 -4.800781 7.1875 -4.203125 7.1875 -3.515625 Z M 5.046875 -4.0625 C 5.046875 -4.425781 4.921875 -4.710938 4.671875 -4.921875 C 4.429688 -5.128906 4.128906 -5.234375 3.765625 -5.234375 C 3.410156 -5.234375 3.113281 -5.128906 2.875 -4.921875 C 2.632812 -4.722656 2.488281 -4.4375 2.4375 -4.0625 Z M 5.046875 -4.0625 "/></g></g></g><g fill="#ffffff" fill-opacity="1"><g transform="translate(90.420988, 144.044153)"><g><path d="M 1.8125 -7.53125 C 1.445312 -7.53125 1.144531 -7.632812 0.90625 -7.84375 C 0.675781 -8.0625 0.5625 -8.332031 0.5625 -8.65625 C 0.5625 -8.976562 0.675781 -9.242188 0.90625 -9.453125 C 1.144531 -9.671875 1.445312 -9.78125 1.8125 -9.78125 C 2.164062 -9.78125 2.457031 -9.671875 2.6875 -9.453125 C 2.925781 -9.242188 3.046875 -8.976562 3.046875 -8.65625 C 3.046875 -8.332031 2.925781 -8.0625 2.6875 -7.84375 C 2.457031 -7.632812 2.164062 -7.53125 1.8125 -7.53125 Z M 2.84375 -6.8125 L 2.84375 0 L 0.75 0 L 0.75 -6.8125 Z M 2.84375 -6.8125 "/></g></g></g><g fill="#ffffff" fill-opacity="1"><g transform="translate(93.695688, 144.044153)"><g><path d="M 3.53125 0.09375 C 2.9375 0.09375 2.40625 -0.00390625 1.9375 -0.203125 C 1.476562 -0.410156 1.113281 -0.691406 0.84375 -1.046875 C 0.570312 -1.398438 0.421875 -1.796875 0.390625 -2.234375 L 2.453125 -2.234375 C 2.484375 -1.992188 2.59375 -1.800781 2.78125 -1.65625 C 2.976562 -1.507812 3.21875 -1.4375 3.5 -1.4375 C 3.757812 -1.4375 3.960938 -1.488281 4.109375 -1.59375 C 4.253906 -1.695312 4.328125 -1.828125 4.328125 -1.984375 C 4.328125 -2.179688 4.222656 -2.328125 4.015625 -2.421875 C 3.816406 -2.515625 3.488281 -2.617188 3.03125 -2.734375 C 2.539062 -2.847656 2.128906 -2.96875 1.796875 -3.09375 C 1.472656 -3.21875 1.191406 -3.414062 0.953125 -3.6875 C 0.722656 -3.96875 0.609375 -4.335938 0.609375 -4.796875 C 0.609375 -5.191406 0.71875 -5.550781 0.9375 -5.875 C 1.15625 -6.195312 1.472656 -6.453125 1.890625 -6.640625 C 2.304688 -6.828125 2.804688 -6.921875 3.390625 -6.921875 C 4.242188 -6.921875 4.914062 -6.707031 5.40625 -6.28125 C 5.894531 -5.851562 6.175781 -5.289062 6.25 -4.59375 L 4.328125 -4.59375 C 4.296875 -4.832031 4.191406 -5.019531 4.015625 -5.15625 C 3.835938 -5.289062 3.609375 -5.359375 3.328125 -5.359375 C 3.078125 -5.359375 2.882812 -5.3125 2.75 -5.21875 C 2.625 -5.125 2.5625 -5 2.5625 -4.84375 C 2.5625 -4.644531 2.664062 -4.492188 2.875 -4.390625 C 3.082031 -4.296875 3.40625 -4.203125 3.84375 -4.109375 C 4.351562 -3.972656 4.765625 -3.84375 5.078125 -3.71875 C 5.398438 -3.59375 5.679688 -3.390625 5.921875 -3.109375 C 6.160156 -2.828125 6.285156 -2.453125 6.296875 -1.984375 C 6.296875 -1.578125 6.179688 -1.21875 5.953125 -0.90625 C 5.734375 -0.59375 5.410156 -0.347656 4.984375 -0.171875 C 4.566406 0.00390625 4.082031 0.09375 3.53125 0.09375 Z M 3.53125 0.09375 "/></g></g></g><g fill="#ffffff" fill-opacity="1"><g transform="translate(100.192757, 144.044153)"><g><path d="M 1.296875 0.078125 C 1.085938 0.078125 0.90625 0.00390625 0.75 -0.140625 C 0.601562 -0.285156 0.53125 -0.46875 0.53125 -0.6875 C 0.53125 -0.894531 0.601562 -1.070312 0.75 -1.21875 C 0.90625 -1.363281 1.085938 -1.4375 1.296875 -1.4375 C 1.492188 -1.4375 1.664062 -1.363281 1.8125 -1.21875 C 1.957031 -1.070312 2.03125 -0.894531 2.03125 -0.6875 C 2.03125 -0.46875 1.957031 -0.285156 1.8125 -0.140625 C 1.664062 0.00390625 1.492188 0.078125 1.296875 0.078125 Z M 1.296875 0.078125 "/></g></g></g><g fill="#ffffff" fill-opacity="1"><g transform="translate(37.108461, 61.490222)"><g><path d="M 15.203125 -13.796875 C 15.203125 -12.171875 14.644531 -10.820312 13.53125 -9.75 C 12.414062 -8.675781 10.722656 -8.140625 8.453125 -8.140625 L 4.703125 -8.140625 L 4.703125 0 L 2.15625 0 L 2.15625 -19.5 L 8.453125 -19.5 C 10.648438 -19.5 12.320312 -18.96875 13.46875 -17.90625 C 14.625 -16.84375 15.203125 -15.472656 15.203125 -13.796875 Z M 8.453125 -10.25 C 9.867188 -10.25 10.910156 -10.554688 11.578125 -11.171875 C 12.253906 -11.785156 12.59375 -12.660156 12.59375 -13.796875 C 12.59375 -16.203125 11.210938 -17.40625 8.453125 -17.40625 L 4.703125 -17.40625 L 4.703125 -10.25 Z M 8.453125 -10.25 "/></g></g></g><g fill="#ffffff" fill-opacity="1"><g transform="translate(52.546709, 61.490222)"><g><path d="M 16.140625 -8.25 C 16.140625 -7.769531 16.113281 -7.257812 16.0625 -6.71875 L 3.8125 -6.71875 C 3.90625 -5.207031 4.421875 -4.023438 5.359375 -3.171875 C 6.296875 -2.328125 7.4375 -1.90625 8.78125 -1.90625 C 9.882812 -1.90625 10.804688 -2.160156 11.546875 -2.671875 C 12.285156 -3.179688 12.800781 -3.867188 13.09375 -4.734375 L 15.84375 -4.734375 C 15.425781 -3.253906 14.601562 -2.050781 13.375 -1.125 C 12.144531 -0.207031 10.613281 0.25 8.78125 0.25 C 7.332031 0.25 6.03125 -0.0703125 4.875 -0.71875 C 3.726562 -1.375 2.828125 -2.300781 2.171875 -3.5 C 1.523438 -4.707031 1.203125 -6.109375 1.203125 -7.703125 C 1.203125 -9.285156 1.519531 -10.671875 2.15625 -11.859375 C 2.789062 -13.054688 3.679688 -13.976562 4.828125 -14.625 C 5.972656 -15.269531 7.289062 -15.59375 8.78125 -15.59375 C 10.238281 -15.59375 11.523438 -15.273438 12.640625 -14.640625 C 13.765625 -14.003906 14.628906 -13.128906 15.234375 -12.015625 C 15.835938 -10.910156 16.140625 -9.65625 16.140625 -8.25 Z M 13.515625 -8.78125 C 13.515625 -9.757812 13.300781 -10.597656 12.875 -11.296875 C 12.445312 -11.992188 11.863281 -12.523438 11.125 -12.890625 C 10.382812 -13.253906 9.566406 -13.4375 8.671875 -13.4375 C 7.390625 -13.4375 6.296875 -13.023438 5.390625 -12.203125 C 4.484375 -11.378906 3.960938 -10.238281 3.828125 -8.78125 Z M 13.515625 -8.78125 "/></g></g></g><g fill="#ffffff" fill-opacity="1"><g transform="translate(69.131655, 61.490222)"><g><path d="M 8.671875 -1.90625 C 9.796875 -1.90625 10.726562 -2.164062 11.46875 -2.6875 C 12.21875 -3.207031 12.734375 -3.953125 13.015625 -4.921875 L 15.75 -4.921875 C 15.382812 -3.472656 14.65625 -2.285156 13.5625 -1.359375 C 12.46875 -0.429688 11.097656 0.09375 9.453125 0.21875 L 9.453125 1.625 C 10.554688 1.601562 11.429688 1.832031 12.078125 2.3125 C 12.734375 2.800781 13.0625 3.492188 13.0625 4.390625 C 13.0625 5.265625 12.742188 5.960938 12.109375 6.484375 C 11.484375 7.015625 10.664062 7.28125 9.65625 7.28125 L 6.4375 7.28125 L 6.4375 5.625 L 9.15625 5.625 C 9.769531 5.625 10.21875 5.53125 10.5 5.34375 C 10.789062 5.15625 10.9375 4.835938 10.9375 4.390625 C 10.9375 3.960938 10.789062 3.65625 10.5 3.46875 C 10.21875 3.28125 9.769531 3.1875 9.15625 3.1875 L 7.75 3.1875 L 7.75 0.203125 C 6.46875 0.0664062 5.332031 -0.335938 4.34375 -1.015625 C 3.351562 -1.703125 2.582031 -2.617188 2.03125 -3.765625 C 1.476562 -4.910156 1.203125 -6.222656 1.203125 -7.703125 C 1.203125 -9.285156 1.519531 -10.664062 2.15625 -11.84375 C 2.789062 -13.03125 3.671875 -13.953125 4.796875 -14.609375 C 5.929688 -15.265625 7.222656 -15.59375 8.671875 -15.59375 C 10.554688 -15.59375 12.109375 -15.132812 13.328125 -14.21875 C 14.554688 -13.300781 15.363281 -12.03125 15.75 -10.40625 L 13.015625 -10.40625 C 12.753906 -11.34375 12.242188 -12.082031 11.484375 -12.625 C 10.734375 -13.164062 9.796875 -13.4375 8.671875 -13.4375 C 7.222656 -13.4375 6.050781 -12.9375 5.15625 -11.9375 C 4.257812 -10.9375 3.8125 -9.523438 3.8125 -7.703125 C 3.8125 -5.847656 4.257812 -4.414062 5.15625 -3.40625 C 6.050781 -2.40625 7.222656 -1.90625 8.671875 -1.90625 Z M 8.671875 -1.90625 "/></g></g></g><g fill="#ffffff" fill-opacity="1"><g transform="translate(85.353018, 61.490222)"><g><path d="M 1.203125 -7.71875 C 1.203125 -9.289062 1.519531 -10.664062 2.15625 -11.84375 C 2.789062 -13.03125 3.660156 -13.953125 4.765625 -14.609375 C 5.878906 -15.265625 7.117188 -15.59375 8.484375 -15.59375 C 9.828125 -15.59375 10.988281 -15.300781 11.96875 -14.71875 C 12.957031 -14.144531 13.695312 -13.414062 14.1875 -12.53125 L 14.1875 -15.328125 L 16.765625 -15.328125 L 16.765625 0 L 14.1875 0 L 14.1875 -2.859375 C 13.6875 -1.960938 12.9375 -1.21875 11.9375 -0.625 C 10.9375 -0.0390625 9.773438 0.25 8.453125 0.25 C 7.085938 0.25 5.851562 -0.0820312 4.75 -0.75 C 3.65625 -1.425781 2.789062 -2.367188 2.15625 -3.578125 C 1.519531 -4.796875 1.203125 -6.175781 1.203125 -7.71875 Z M 14.1875 -7.703125 C 14.1875 -8.859375 13.953125 -9.863281 13.484375 -10.71875 C 13.015625 -11.570312 12.382812 -12.226562 11.59375 -12.6875 C 10.800781 -13.144531 9.929688 -13.375 8.984375 -13.375 C 8.035156 -13.375 7.164062 -13.148438 6.375 -12.703125 C 5.59375 -12.253906 4.96875 -11.597656 4.5 -10.734375 C 4.039062 -9.878906 3.8125 -8.875 3.8125 -7.71875 C 3.8125 -6.539062 4.039062 -5.519531 4.5 -4.65625 C 4.96875 -3.789062 5.59375 -3.128906 6.375 -2.671875 C 7.164062 -2.210938 8.035156 -1.984375 8.984375 -1.984375 C 9.929688 -1.984375 10.800781 -2.210938 11.59375 -2.671875 C 12.382812 -3.128906 13.015625 -3.789062 13.484375 -4.65625 C 13.953125 -5.519531 14.1875 -6.535156 14.1875 -7.703125 Z M 14.1875 -7.703125 "/></g></g></g><g fill="#ffffff" fill-opacity="1"><g transform="translate(103.504194, 61.490222)"><g><path d="M 7.578125 0.25 C 6.410156 0.25 5.359375 0.0507812 4.421875 -0.34375 C 3.484375 -0.75 2.742188 -1.3125 2.203125 -2.03125 C 1.671875 -2.75 1.375 -3.570312 1.3125 -4.5 L 3.953125 -4.5 C 4.023438 -3.738281 4.378906 -3.113281 5.015625 -2.625 C 5.660156 -2.144531 6.507812 -1.90625 7.5625 -1.90625 C 8.53125 -1.90625 9.289062 -2.117188 9.84375 -2.546875 C 10.40625 -2.972656 10.6875 -3.515625 10.6875 -4.171875 C 10.6875 -4.835938 10.390625 -5.332031 9.796875 -5.65625 C 9.203125 -5.988281 8.28125 -6.3125 7.03125 -6.625 C 5.882812 -6.925781 4.953125 -7.226562 4.234375 -7.53125 C 3.515625 -7.84375 2.898438 -8.300781 2.390625 -8.90625 C 1.878906 -9.519531 1.625 -10.320312 1.625 -11.3125 C 1.625 -12.09375 1.851562 -12.804688 2.3125 -13.453125 C 2.78125 -14.109375 3.441406 -14.628906 4.296875 -15.015625 C 5.160156 -15.398438 6.144531 -15.59375 7.25 -15.59375 C 8.945312 -15.59375 10.316406 -15.160156 11.359375 -14.296875 C 12.398438 -13.441406 12.960938 -12.269531 13.046875 -10.78125 L 10.5 -10.78125 C 10.4375 -11.582031 10.109375 -12.222656 9.515625 -12.703125 C 8.929688 -13.191406 8.144531 -13.4375 7.15625 -13.4375 C 6.25 -13.4375 5.523438 -13.238281 4.984375 -12.84375 C 4.441406 -12.445312 4.171875 -11.9375 4.171875 -11.3125 C 4.171875 -10.800781 4.332031 -10.382812 4.65625 -10.0625 C 4.988281 -9.738281 5.398438 -9.476562 5.890625 -9.28125 C 6.378906 -9.082031 7.066406 -8.863281 7.953125 -8.625 C 9.046875 -8.320312 9.9375 -8.023438 10.625 -7.734375 C 11.320312 -7.441406 11.914062 -7.003906 12.40625 -6.421875 C 12.90625 -5.847656 13.164062 -5.097656 13.1875 -4.171875 C 13.1875 -3.328125 12.953125 -2.566406 12.484375 -1.890625 C 12.015625 -1.222656 11.351562 -0.695312 10.5 -0.3125 C 9.65625 0.0625 8.679688 0.25 7.578125 0.25 Z M 7.578125 0.25 "/></g></g></g><g fill="#ffffff" fill-opacity="1"><g transform="translate(117.348237, 61.490222)"><g/></g></g><path fill="#2c502f" d="M 124.058594 62.984375 L 260.574219 62.984375 L 260.574219 65.226562 L 124.058594 65.226562 Z M 124.058594 62.984375 " fill-opacity="1" fill-rule="nonzero"/><g fill="#2c502f" fill-opacity="1"><g transform="translate(124.060435, 61.490222)"><g><path d="M 13.1875 -19.5 L 13.1875 -17.4375 L 4.703125 -17.4375 L 4.703125 -10.859375 L 11.578125 -10.859375 L 11.578125 -8.78125 L 4.703125 -8.78125 L 4.703125 0 L 2.15625 0 L 2.15625 -19.5 Z M 13.1875 -19.5 "/></g></g></g><g fill="#2c502f" fill-opacity="1"><g transform="translate(137.401047, 61.490222)"><g><path d="M 16.140625 -8.25 C 16.140625 -7.769531 16.113281 -7.257812 16.0625 -6.71875 L 3.8125 -6.71875 C 3.90625 -5.207031 4.421875 -4.023438 5.359375 -3.171875 C 6.296875 -2.328125 7.4375 -1.90625 8.78125 -1.90625 C 9.882812 -1.90625 10.804688 -2.160156 11.546875 -2.671875 C 12.285156 -3.179688 12.800781 -3.867188 13.09375 -4.734375 L 15.84375 -4.734375 C 15.425781 -3.253906 14.601562 -2.050781 13.375 -1.125 C 12.144531 -0.207031 10.613281 0.25 8.78125 0.25 C 7.332031 0.25 6.03125 -0.0703125 4.875 -0.71875 C 3.726562 -1.375 2.828125 -2.300781 2.171875 -3.5 C 1.523438 -4.707031 1.203125 -6.109375 1.203125 -7.703125 C 1.203125 -9.285156 1.519531 -10.671875 2.15625 -11.859375 C 2.789062 -13.054688 3.679688 -13.976562 4.828125 -14.625 C 5.972656 -15.269531 7.289062 -15.59375 8.78125 -15.59375 C 10.238281 -15.59375 11.523438 -15.273438 12.640625 -14.640625 C 13.765625 -14.003906 14.628906 -13.128906 15.234375 -12.015625 C 15.835938 -10.910156 16.140625 -9.65625 16.140625 -8.25 Z M 13.515625 -8.78125 C 13.515625 -9.757812 13.300781 -10.597656 12.875 -11.296875 C 12.445312 -11.992188 11.863281 -12.523438 11.125 -12.890625 C 10.382812 -13.253906 9.566406 -13.4375 8.671875 -13.4375 C 7.390625 -13.4375 6.296875 -13.023438 5.390625 -12.203125 C 4.484375 -11.378906 3.960938 -10.238281 3.828125 -8.78125 Z M 13.515625 -8.78125 "/></g></g></g><g fill="#2c502f" fill-opacity="1"><g transform="translate(153.985994, 61.490222)"><g><path d="M 20.59375 -15.609375 C 21.789062 -15.609375 22.851562 -15.359375 23.78125 -14.859375 C 24.71875 -14.367188 25.457031 -13.628906 26 -12.640625 C 26.539062 -11.660156 26.8125 -10.457031 26.8125 -9.03125 L 26.8125 0 L 24.296875 0 L 24.296875 -8.671875 C 24.296875 -10.203125 23.914062 -11.375 23.15625 -12.1875 C 22.40625 -13 21.382812 -13.40625 20.09375 -13.40625 C 18.769531 -13.40625 17.710938 -12.976562 16.921875 -12.125 C 16.140625 -11.28125 15.75 -10.054688 15.75 -8.453125 L 15.75 0 L 13.234375 0 L 13.234375 -8.671875 C 13.234375 -10.203125 12.851562 -11.375 12.09375 -12.1875 C 11.34375 -13 10.320312 -13.40625 9.03125 -13.40625 C 7.707031 -13.40625 6.65625 -12.976562 5.875 -12.125 C 5.09375 -11.28125 4.703125 -10.054688 4.703125 -8.453125 L 4.703125 0 L 2.15625 0 L 2.15625 -15.328125 L 4.703125 -15.328125 L 4.703125 -13.125 C 5.203125 -13.925781 5.875 -14.539062 6.71875 -14.96875 C 7.570312 -15.394531 8.515625 -15.609375 9.546875 -15.609375 C 10.828125 -15.609375 11.960938 -15.316406 12.953125 -14.734375 C 13.941406 -14.160156 14.679688 -13.316406 15.171875 -12.203125 C 15.597656 -13.285156 16.304688 -14.125 17.296875 -14.71875 C 18.285156 -15.3125 19.382812 -15.609375 20.59375 -15.609375 Z M 20.59375 -15.609375 "/></g></g></g><g fill="#2c502f" fill-opacity="1"><g transform="translate(182.037983, 61.490222)"><g><path d="M 3.46875 -17.828125 C 2.988281 -17.828125 2.578125 -17.992188 2.234375 -18.328125 C 1.898438 -18.660156 1.734375 -19.070312 1.734375 -19.5625 C 1.734375 -20.039062 1.898438 -20.445312 2.234375 -20.78125 C 2.578125 -21.125 2.988281 -21.296875 3.46875 -21.296875 C 3.9375 -21.296875 4.332031 -21.125 4.65625 -20.78125 C 4.988281 -20.445312 5.15625 -20.039062 5.15625 -19.5625 C 5.15625 -19.070312 4.988281 -18.660156 4.65625 -18.328125 C 4.332031 -17.992188 3.9375 -17.828125 3.46875 -17.828125 Z M 4.703125 -15.328125 L 4.703125 0 L 2.15625 0 L 2.15625 -15.328125 Z M 4.703125 -15.328125 "/></g></g></g><g fill="#2c502f" fill-opacity="1"><g transform="translate(188.162748, 61.490222)"><g><path d="M 9.625 -15.609375 C 11.488281 -15.609375 13 -15.046875 14.15625 -13.921875 C 15.3125 -12.796875 15.890625 -11.164062 15.890625 -9.03125 L 15.890625 0 L 13.375 0 L 13.375 -8.671875 C 13.375 -10.203125 12.988281 -11.375 12.21875 -12.1875 C 11.457031 -13 10.414062 -13.40625 9.09375 -13.40625 C 7.75 -13.40625 6.679688 -12.984375 5.890625 -12.140625 C 5.097656 -11.304688 4.703125 -10.085938 4.703125 -8.484375 L 4.703125 0 L 2.15625 0 L 2.15625 -15.328125 L 4.703125 -15.328125 L 4.703125 -13.15625 C 5.203125 -13.9375 5.882812 -14.539062 6.75 -14.96875 C 7.625 -15.394531 8.582031 -15.609375 9.625 -15.609375 Z M 9.625 -15.609375 "/></g></g></g><g fill="#2c502f" fill-opacity="1"><g transform="translate(205.307062, 61.490222)"><g><path d="M 3.46875 -17.828125 C 2.988281 -17.828125 2.578125 -17.992188 2.234375 -18.328125 C 1.898438 -18.660156 1.734375 -19.070312 1.734375 -19.5625 C 1.734375 -20.039062 1.898438 -20.445312 2.234375 -20.78125 C 2.578125 -21.125 2.988281 -21.296875 3.46875 -21.296875 C 3.9375 -21.296875 4.332031 -21.125 4.65625 -20.78125 C 4.988281 -20.445312 5.15625 -20.039062 5.15625 -19.5625 C 5.15625 -19.070312 4.988281 -18.660156 4.65625 -18.328125 C 4.332031 -17.992188 3.9375 -17.828125 3.46875 -17.828125 Z M 4.703125 -15.328125 L 4.703125 0 L 2.15625 0 L 2.15625 -15.328125 Z M 4.703125 -15.328125 "/></g></g></g><g fill="#2c502f" fill-opacity="1"><g transform="translate(211.431827, 61.490222)"><g><path d="M 9.625 -15.609375 C 11.488281 -15.609375 13 -15.046875 14.15625 -13.921875 C 15.3125 -12.796875 15.890625 -11.164062 15.890625 -9.03125 L 15.890625 0 L 13.375 0 L 13.375 -8.671875 C 13.375 -10.203125 12.988281 -11.375 12.21875 -12.1875 C 11.457031 -13 10.414062 -13.40625 9.09375 -13.40625 C 7.75 -13.40625 6.679688 -12.984375 5.890625 -12.140625 C 5.097656 -11.304688 4.703125 -10.085938 4.703125 -8.484375 L 4.703125 0 L 2.15625 0 L 2.15625 -15.328125 L 4.703125 -15.328125 L 4.703125 -13.15625 C 5.203125 -13.9375 5.882812 -14.539062 6.75 -14.96875 C 7.625 -15.394531 8.582031 -15.609375 9.625 -15.609375 Z M 9.625 -15.609375 "/></g></g></g><g fill="#2c502f" fill-opacity="1"><g transform="translate(228.576141, 61.490222)"><g><path d="M 1.203125 -7.71875 C 1.203125 -9.289062 1.519531 -10.664062 2.15625 -11.84375 C 2.789062 -13.03125 3.660156 -13.953125 4.765625 -14.609375 C 5.878906 -15.265625 7.117188 -15.59375 8.484375 -15.59375 C 9.828125 -15.59375 10.988281 -15.300781 11.96875 -14.71875 C 12.957031 -14.144531 13.695312 -13.414062 14.1875 -12.53125 L 14.1875 -15.328125 L 16.765625 -15.328125 L 16.765625 0 L 14.1875 0 L 14.1875 -2.859375 C 13.6875 -1.960938 12.9375 -1.21875 11.9375 -0.625 C 10.9375 -0.0390625 9.773438 0.25 8.453125 0.25 C 7.085938 0.25 5.851562 -0.0820312 4.75 -0.75 C 3.65625 -1.425781 2.789062 -2.367188 2.15625 -3.578125 C 1.519531 -4.796875 1.203125 -6.175781 1.203125 -7.71875 Z M 14.1875 -7.703125 C 14.1875 -8.859375 13.953125 -9.863281 13.484375 -10.71875 C 13.015625 -11.570312 12.382812 -12.226562 11.59375 -12.6875 C 10.800781 -13.144531 9.929688 -13.375 8.984375 -13.375 C 8.035156 -13.375 7.164062 -13.148438 6.375 -12.703125 C 5.59375 -12.253906 4.96875 -11.597656 4.5 -10.734375 C 4.039062 -9.878906 3.8125 -8.875 3.8125 -7.71875 C 3.8125 -6.539062 4.039062 -5.519531 4.5 -4.65625 C 4.96875 -3.789062 5.59375 -3.128906 6.375 -2.671875 C 7.164062 -2.210938 8.035156 -1.984375 8.984375 -1.984375 C 9.929688 -1.984375 10.800781 -2.210938 11.59375 -2.671875 C 12.382812 -3.128906 13.015625 -3.789062 13.484375 -4.65625 C 13.953125 -5.519531 14.1875 -6.535156 14.1875 -7.703125 Z M 14.1875 -7.703125 "/></g></g></g><g fill="#2c502f" fill-opacity="1"><g transform="translate(246.727317, 61.490222)"><g><path d="M 7.578125 0.25 C 6.410156 0.25 5.359375 0.0507812 4.421875 -0.34375 C 3.484375 -0.75 2.742188 -1.3125 2.203125 -2.03125 C 1.671875 -2.75 1.375 -3.570312 1.3125 -4.5 L 3.953125 -4.5 C 4.023438 -3.738281 4.378906 -3.113281 5.015625 -2.625 C 5.660156 -2.144531 6.507812 -1.90625 7.5625 -1.90625 C 8.53125 -1.90625 9.289062 -2.117188 9.84375 -2.546875 C 10.40625 -2.972656 10.6875 -3.515625 10.6875 -4.171875 C 10.6875 -4.835938 10.390625 -5.332031 9.796875 -5.65625 C 9.203125 -5.988281 8.28125 -6.3125 7.03125 -6.625 C 5.882812 -6.925781 4.953125 -7.226562 4.234375 -7.53125 C 3.515625 -7.84375 2.898438 -8.300781 2.390625 -8.90625 C 1.878906 -9.519531 1.625 -10.320312 1.625 -11.3125 C 1.625 -12.09375 1.851562 -12.804688 2.3125 -13.453125 C 2.78125 -14.109375 3.441406 -14.628906 4.296875 -15.015625 C 5.160156 -15.398438 6.144531 -15.59375 7.25 -15.59375 C 8.945312 -15.59375 10.316406 -15.160156 11.359375 -14.296875 C 12.398438 -13.441406 12.960938 -12.269531 13.046875 -10.78125 L 10.5 -10.78125 C 10.4375 -11.582031 10.109375 -12.222656 9.515625 -12.703125 C 8.929688 -13.191406 8.144531 -13.4375 7.15625 -13.4375 C 6.25 -13.4375 5.523438 -13.238281 4.984375 -12.84375 C 4.441406 -12.445312 4.171875 -11.9375 4.171875 -11.3125 C 4.171875 -10.800781 4.332031 -10.382812 4.65625 -10.0625 C 4.988281 -9.738281 5.398438 -9.476562 5.890625 -9.28125 C 6.378906 -9.082031 7.066406 -8.863281 7.953125 -8.625 C 9.046875 -8.320312 9.9375 -8.023438 10.625 -7.734375 C 11.320312 -7.441406 11.914062 -7.003906 12.40625 -6.421875 C 12.90625 -5.847656 13.164062 -5.097656 13.1875 -4.171875 C 13.1875 -3.328125 12.953125 -2.566406 12.484375 -1.890625 C 12.015625 -1.222656 11.351562 -0.695312 10.5 -0.3125 C 9.65625 0.0625 8.679688 0.25 7.578125 0.25 Z M 7.578125 0.25 "/></g></g></g><g fill="#ffffff" fill-opacity="1"><g transform="translate(378.692397, 83.743656)"><g><path d="M 1.921875 -1.234375 L 1.046875 1 L 0.203125 1 L 0.65625 -1.234375 Z M 1.921875 -1.234375 "/></g></g></g><g fill="#ffffff" fill-opacity="1"><g transform="translate(380.716549, 83.743656)"><g><path d="M 0.34375 -2.921875 C 0.34375 -3.804688 0.515625 -4.503906 0.859375 -5.015625 C 1.210938 -5.535156 1.769531 -5.796875 2.53125 -5.796875 C 3.300781 -5.796875 3.859375 -5.535156 4.203125 -5.015625 C 4.546875 -4.503906 4.71875 -3.804688 4.71875 -2.921875 C 4.71875 -2.015625 4.546875 -1.300781 4.203125 -0.78125 C 3.859375 -0.269531 3.300781 -0.015625 2.53125 -0.015625 C 1.769531 -0.015625 1.210938 -0.269531 0.859375 -0.78125 C 0.515625 -1.300781 0.34375 -2.015625 0.34375 -2.921875 Z M 3.421875 -2.921875 C 3.421875 -3.441406 3.363281 -3.84375 3.25 -4.125 C 3.132812 -4.40625 2.894531 -4.546875 2.53125 -4.546875 C 2.175781 -4.546875 1.941406 -4.40625 1.828125 -4.125 C 1.710938 -3.84375 1.65625 -3.441406 1.65625 -2.921875 C 1.65625 -2.566406 1.675781 -2.273438 1.71875 -2.046875 C 1.757812 -1.816406 1.84375 -1.628906 1.96875 -1.484375 C 2.09375 -1.335938 2.28125 -1.265625 2.53125 -1.265625 C 2.78125 -1.265625 2.96875 -1.335938 3.09375 -1.484375 C 3.226562 -1.628906 3.316406 -1.816406 3.359375 -2.046875 C 3.398438 -2.273438 3.421875 -2.566406 3.421875 -2.921875 Z M 3.421875 -2.921875 "/></g></g></g><g fill="#ffffff" fill-opacity="1"><g transform="translate(385.582416, 83.743656)"><g><path d="M 0.34375 -2.921875 C 0.34375 -3.804688 0.515625 -4.503906 0.859375 -5.015625 C 1.210938 -5.535156 1.769531 -5.796875 2.53125 -5.796875 C 3.300781 -5.796875 3.859375 -5.535156 4.203125 -5.015625 C 4.546875 -4.503906 4.71875 -3.804688 4.71875 -2.921875 C 4.71875 -2.015625 4.546875 -1.300781 4.203125 -0.78125 C 3.859375 -0.269531 3.300781 -0.015625 2.53125 -0.015625 C 1.769531 -0.015625 1.210938 -0.269531 0.859375 -0.78125 C 0.515625 -1.300781 0.34375 -2.015625 0.34375 -2.921875 Z M 3.421875 -2.921875 C 3.421875 -3.441406 3.363281 -3.84375 3.25 -4.125 C 3.132812 -4.40625 2.894531 -4.546875 2.53125 -4.546875 C 2.175781 -4.546875 1.941406 -4.40625 1.828125 -4.125 C 1.710938 -3.84375 1.65625 -3.441406 1.65625 -2.921875 C 1.65625 -2.566406 1.675781 -2.273438 1.71875 -2.046875 C 1.757812 -1.816406 1.84375 -1.628906 1.96875 -1.484375 C 2.09375 -1.335938 2.28125 -1.265625 2.53125 -1.265625 C 2.78125 -1.265625 2.96875 -1.335938 3.09375 -1.484375 C 3.226562 -1.628906 3.316406 -1.816406 3.359375 -2.046875 C 3.398438 -2.273438 3.421875 -2.566406 3.421875 -2.921875 Z M 3.421875 -2.921875 "/></g></g></g><g fill="#ffffff" fill-opacity="1"><g transform="translate(465.006852, 136.109698)"><g><path d="M 1.53125 -15.734375 C 1.613281 -17.878906 2.3125 -19.53125 3.625 -20.6875 C 4.945312 -21.851562 6.742188 -22.4375 9.015625 -22.4375 C 10.515625 -22.4375 11.796875 -22.175781 12.859375 -21.65625 C 13.929688 -21.132812 14.742188 -20.421875 15.296875 -19.515625 C 15.847656 -18.617188 16.125 -17.609375 16.125 -16.484375 C 16.125 -15.160156 15.789062 -14.082031 15.125 -13.25 C 14.46875 -12.425781 13.703125 -11.863281 12.828125 -11.5625 L 12.828125 -11.4375 C 13.960938 -11.0625 14.859375 -10.429688 15.515625 -9.546875 C 16.179688 -8.671875 16.515625 -7.539062 16.515625 -6.15625 C 16.515625 -4.914062 16.226562 -3.816406 15.65625 -2.859375 C 15.09375 -1.910156 14.265625 -1.164062 13.171875 -0.625 C 12.078125 -0.0820312 10.78125 0.1875 9.28125 0.1875 C 6.875 0.1875 4.953125 -0.398438 3.515625 -1.578125 C 2.085938 -2.765625 1.335938 -4.550781 1.265625 -6.9375 L 6.25 -6.9375 C 6.269531 -6.050781 6.519531 -5.351562 7 -4.84375 C 7.476562 -4.332031 8.175781 -4.078125 9.09375 -4.078125 C 9.875 -4.078125 10.476562 -4.300781 10.90625 -4.75 C 11.34375 -5.207031 11.5625 -5.804688 11.5625 -6.546875 C 11.5625 -7.503906 11.253906 -8.195312 10.640625 -8.625 C 10.035156 -9.0625 9.0625 -9.28125 7.71875 -9.28125 L 6.75 -9.28125 L 6.75 -13.453125 L 7.71875 -13.453125 C 8.738281 -13.453125 9.5625 -13.625 10.1875 -13.96875 C 10.820312 -14.320312 11.140625 -14.953125 11.140625 -15.859375 C 11.140625 -16.578125 10.9375 -17.132812 10.53125 -17.53125 C 10.132812 -17.9375 9.585938 -18.140625 8.890625 -18.140625 C 8.128906 -18.140625 7.5625 -17.90625 7.1875 -17.4375 C 6.820312 -16.976562 6.609375 -16.410156 6.546875 -15.734375 Z M 1.53125 -15.734375 "/></g></g></g><g fill="#ffffff" fill-opacity="1"><g transform="translate(482.35884, 136.109698)"><g><path d="M 1.34375 -11.265625 C 1.34375 -14.703125 2.007812 -17.410156 3.34375 -19.390625 C 4.675781 -21.378906 6.828125 -22.375 9.796875 -22.375 C 12.753906 -22.375 14.898438 -21.378906 16.234375 -19.390625 C 17.566406 -17.410156 18.234375 -14.703125 18.234375 -11.265625 C 18.234375 -7.773438 17.566406 -5.039062 16.234375 -3.0625 C 14.898438 -1.082031 12.753906 -0.09375 9.796875 -0.09375 C 6.828125 -0.09375 4.675781 -1.082031 3.34375 -3.0625 C 2.007812 -5.039062 1.34375 -7.773438 1.34375 -11.265625 Z M 13.1875 -11.265625 C 13.1875 -13.285156 12.960938 -14.835938 12.515625 -15.921875 C 12.078125 -17.015625 11.171875 -17.5625 9.796875 -17.5625 C 8.410156 -17.5625 7.492188 -17.015625 7.046875 -15.921875 C 6.609375 -14.835938 6.390625 -13.285156 6.390625 -11.265625 C 6.390625 -9.898438 6.46875 -8.769531 6.625 -7.875 C 6.789062 -6.988281 7.117188 -6.269531 7.609375 -5.71875 C 8.097656 -5.164062 8.828125 -4.890625 9.796875 -4.890625 C 10.753906 -4.890625 11.476562 -5.164062 11.96875 -5.71875 C 12.457031 -6.269531 12.78125 -6.988281 12.9375 -7.875 C 13.101562 -8.769531 13.1875 -9.898438 13.1875 -11.265625 Z M 13.1875 -11.265625 "/></g></g></g><g fill="#ffffff" fill-opacity="1"><g transform="translate(443.781905, 133.230806)"><g><path d="M 5.59375 0 L 3.65625 -3.53125 L 3.109375 -3.53125 L 3.109375 0 L 0.828125 0 L 0.828125 -9.359375 L 4.65625 -9.359375 C 5.382812 -9.359375 6.007812 -9.226562 6.53125 -8.96875 C 7.050781 -8.707031 7.441406 -8.351562 7.703125 -7.90625 C 7.960938 -7.457031 8.09375 -6.957031 8.09375 -6.40625 C 8.09375 -5.789062 7.914062 -5.238281 7.5625 -4.75 C 7.207031 -4.257812 6.691406 -3.910156 6.015625 -3.703125 L 8.171875 0 Z M 3.109375 -5.140625 L 4.515625 -5.140625 C 4.929688 -5.140625 5.242188 -5.238281 5.453125 -5.4375 C 5.660156 -5.644531 5.765625 -5.9375 5.765625 -6.3125 C 5.765625 -6.664062 5.660156 -6.945312 5.453125 -7.15625 C 5.242188 -7.363281 4.929688 -7.46875 4.515625 -7.46875 L 3.109375 -7.46875 Z M 3.109375 -5.140625 "/></g></g></g><g fill="#ffffff" fill-opacity="1"><g transform="translate(452.109111, 133.230806)"><g><path d="M 7.90625 -2.71875 C 7.90625 -2.226562 7.773438 -1.773438 7.515625 -1.359375 C 7.265625 -0.953125 6.894531 -0.613281 6.40625 -0.34375 C 5.914062 -0.0820312 5.332031 0.0546875 4.65625 0.078125 L 4.65625 1.15625 L 3.796875 1.15625 L 3.796875 0.0625 C 2.859375 -0.0078125 2.097656 -0.285156 1.515625 -0.765625 C 0.941406 -1.253906 0.632812 -1.921875 0.59375 -2.765625 L 3.03125 -2.765625 C 3.082031 -2.222656 3.335938 -1.878906 3.796875 -1.734375 L 3.796875 -3.84375 C 3.109375 -4.019531 2.554688 -4.191406 2.140625 -4.359375 C 1.722656 -4.523438 1.359375 -4.796875 1.046875 -5.171875 C 0.742188 -5.546875 0.59375 -6.054688 0.59375 -6.703125 C 0.59375 -7.515625 0.890625 -8.164062 1.484375 -8.65625 C 2.085938 -9.144531 2.859375 -9.414062 3.796875 -9.46875 L 3.796875 -10.5625 L 4.65625 -10.5625 L 4.65625 -9.46875 C 5.582031 -9.40625 6.316406 -9.132812 6.859375 -8.65625 C 7.398438 -8.1875 7.703125 -7.535156 7.765625 -6.703125 L 5.328125 -6.703125 C 5.273438 -7.179688 5.050781 -7.492188 4.65625 -7.640625 L 4.65625 -5.578125 C 5.382812 -5.367188 5.945312 -5.179688 6.34375 -5.015625 C 6.75 -4.859375 7.109375 -4.59375 7.421875 -4.21875 C 7.742188 -3.851562 7.90625 -3.351562 7.90625 -2.71875 Z M 3 -6.8125 C 3 -6.59375 3.066406 -6.40625 3.203125 -6.25 C 3.335938 -6.101562 3.535156 -5.96875 3.796875 -5.84375 L 3.796875 -7.703125 C 3.546875 -7.660156 3.347656 -7.566406 3.203125 -7.421875 C 3.066406 -7.273438 3 -7.070312 3 -6.8125 Z M 4.65625 -1.6875 C 4.914062 -1.738281 5.125 -1.847656 5.28125 -2.015625 C 5.4375 -2.179688 5.515625 -2.390625 5.515625 -2.640625 C 5.515625 -2.867188 5.441406 -3.054688 5.296875 -3.203125 C 5.148438 -3.347656 4.9375 -3.472656 4.65625 -3.578125 Z M 4.65625 -1.6875 "/></g></g></g><g fill="#ffffff" fill-opacity="1"><g transform="translate(505.181948, 135.638023)"><g><path d="M 1.921875 -1.234375 L 1.046875 1 L 0.203125 1 L 0.65625 -1.234375 Z M 1.921875 -1.234375 "/></g></g></g><g fill="#ffffff" fill-opacity="1"><g transform="translate(507.2061, 135.638023)"><g><path d="M 0.34375 -2.921875 C 0.34375 -3.804688 0.515625 -4.503906 0.859375 -5.015625 C 1.210938 -5.535156 1.769531 -5.796875 2.53125 -5.796875 C 3.300781 -5.796875 3.859375 -5.535156 4.203125 -5.015625 C 4.546875 -4.503906 4.71875 -3.804688 4.71875 -2.921875 C 4.71875 -2.015625 4.546875 -1.300781 4.203125 -0.78125 C 3.859375 -0.269531 3.300781 -0.015625 2.53125 -0.015625 C 1.769531 -0.015625 1.210938 -0.269531 0.859375 -0.78125 C 0.515625 -1.300781 0.34375 -2.015625 0.34375 -2.921875 Z M 3.421875 -2.921875 C 3.421875 -3.441406 3.363281 -3.84375 3.25 -4.125 C 3.132812 -4.40625 2.894531 -4.546875 2.53125 -4.546875 C 2.175781 -4.546875 1.941406 -4.40625 1.828125 -4.125 C 1.710938 -3.84375 1.65625 -3.441406 1.65625 -2.921875 C 1.65625 -2.566406 1.675781 -2.273438 1.71875 -2.046875 C 1.757812 -1.816406 1.84375 -1.628906 1.96875 -1.484375 C 2.09375 -1.335938 2.28125 -1.265625 2.53125 -1.265625 C 2.78125 -1.265625 2.96875 -1.335938 3.09375 -1.484375 C 3.226562 -1.628906 3.316406 -1.816406 3.359375 -2.046875 C 3.398438 -2.273438 3.421875 -2.566406 3.421875 -2.921875 Z M 3.421875 -2.921875 "/></g></g></g><g fill="#ffffff" fill-opacity="1"><g transform="translate(512.071967, 135.638023)"><g><path d="M 0.34375 -2.921875 C 0.34375 -3.804688 0.515625 -4.503906 0.859375 -5.015625 C 1.210938 -5.535156 1.769531 -5.796875 2.53125 -5.796875 C 3.300781 -5.796875 3.859375 -5.535156 4.203125 -5.015625 C 4.546875 -4.503906 4.71875 -3.804688 4.71875 -2.921875 C 4.71875 -2.015625 4.546875 -1.300781 4.203125 -0.78125 C 3.859375 -0.269531 3.300781 -0.015625 2.53125 -0.015625 C 1.769531 -0.015625 1.210938 -0.269531 0.859375 -0.78125 C 0.515625 -1.300781 0.34375 -2.015625 0.34375 -2.921875 Z M 3.421875 -2.921875 C 3.421875 -3.441406 3.363281 -3.84375 3.25 -4.125 C 3.132812 -4.40625 2.894531 -4.546875 2.53125 -4.546875 C 2.175781 -4.546875 1.941406 -4.40625 1.828125 -4.125 C 1.710938 -3.84375 1.65625 -3.441406 1.65625 -2.921875 C 1.65625 -2.566406 1.675781 -2.273438 1.71875 -2.046875 C 1.757812 -1.816406 1.84375 -1.628906 1.96875 -1.484375 C 2.09375 -1.335938 2.28125 -1.265625 2.53125 -1.265625 C 2.78125 -1.265625 2.96875 -1.335938 3.09375 -1.484375 C 3.226562 -1.628906 3.316406 -1.816406 3.359375 -2.046875 C 3.398438 -2.273438 3.421875 -2.566406 3.421875 -2.921875 Z M 3.421875 -2.921875 "/></g></g></g><g fill="#ffffff" fill-opacity="1"><g transform="translate(412.346763, 104.818337)"><g><path d="M 3.796875 -7.796875 C 4.066406 -8.222656 4.441406 -8.566406 4.921875 -8.828125 C 5.398438 -9.085938 5.957031 -9.21875 6.59375 -9.21875 C 7.34375 -9.21875 8.019531 -9.023438 8.625 -8.640625 C 9.238281 -8.265625 9.71875 -7.722656 10.0625 -7.015625 C 10.414062 -6.304688 10.59375 -5.488281 10.59375 -4.5625 C 10.59375 -3.625 10.414062 -2.800781 10.0625 -2.09375 C 9.71875 -1.382812 9.238281 -0.835938 8.625 -0.453125 C 8.019531 -0.0664062 7.34375 0.125 6.59375 0.125 C 5.96875 0.125 5.410156 -0.00390625 4.921875 -0.265625 C 4.441406 -0.523438 4.066406 -0.859375 3.796875 -1.265625 L 3.796875 4.328125 L 1.015625 4.328125 L 1.015625 -9.078125 L 3.796875 -9.078125 Z M 7.765625 -4.5625 C 7.765625 -5.25 7.570312 -5.789062 7.1875 -6.1875 C 6.800781 -6.59375 6.328125 -6.796875 5.765625 -6.796875 C 5.210938 -6.796875 4.742188 -6.59375 4.359375 -6.1875 C 3.972656 -5.78125 3.78125 -5.234375 3.78125 -4.546875 C 3.78125 -3.847656 3.972656 -3.296875 4.359375 -2.890625 C 4.742188 -2.492188 5.210938 -2.296875 5.765625 -2.296875 C 6.316406 -2.296875 6.785156 -2.5 7.171875 -2.90625 C 7.566406 -3.3125 7.765625 -3.863281 7.765625 -4.5625 Z M 7.765625 -4.5625 "/></g></g></g><g fill="#ffffff" fill-opacity="1"><g transform="translate(422.955032, 104.818337)"><g><path d="M 5.140625 0.125 C 4.253906 0.125 3.453125 -0.0625 2.734375 -0.4375 C 2.023438 -0.820312 1.46875 -1.363281 1.0625 -2.0625 C 0.65625 -2.769531 0.453125 -3.597656 0.453125 -4.546875 C 0.453125 -5.472656 0.65625 -6.289062 1.0625 -7 C 1.476562 -7.71875 2.046875 -8.265625 2.765625 -8.640625 C 3.484375 -9.023438 4.285156 -9.21875 5.171875 -9.21875 C 6.066406 -9.21875 6.867188 -9.023438 7.578125 -8.640625 C 8.296875 -8.265625 8.863281 -7.71875 9.28125 -7 C 9.695312 -6.289062 9.90625 -5.472656 9.90625 -4.546875 C 9.90625 -3.609375 9.691406 -2.785156 9.265625 -2.078125 C 8.847656 -1.367188 8.28125 -0.820312 7.5625 -0.4375 C 6.84375 -0.0625 6.035156 0.125 5.140625 0.125 Z M 5.140625 -2.28125 C 5.671875 -2.28125 6.125 -2.472656 6.5 -2.859375 C 6.875 -3.253906 7.0625 -3.816406 7.0625 -4.546875 C 7.0625 -5.273438 6.878906 -5.832031 6.515625 -6.21875 C 6.148438 -6.613281 5.703125 -6.8125 5.171875 -6.8125 C 4.628906 -6.8125 4.175781 -6.617188 3.8125 -6.234375 C 3.457031 -5.847656 3.28125 -5.285156 3.28125 -4.546875 C 3.28125 -3.816406 3.457031 -3.253906 3.8125 -2.859375 C 4.164062 -2.472656 4.609375 -2.28125 5.140625 -2.28125 Z M 5.140625 -2.28125 "/></g></g></g><g fill="#ffffff" fill-opacity="1"><g transform="translate(432.879923, 104.818337)"><g><path d="M 3.796875 -7.578125 C 4.117188 -8.066406 4.523438 -8.457031 5.015625 -8.75 C 5.503906 -9.039062 6.046875 -9.1875 6.640625 -9.1875 L 6.640625 -6.234375 L 5.875 -6.234375 C 5.175781 -6.234375 4.65625 -6.082031 4.3125 -5.78125 C 3.96875 -5.488281 3.796875 -4.96875 3.796875 -4.21875 L 3.796875 0 L 1.015625 0 L 1.015625 -9.078125 L 3.796875 -9.078125 Z M 3.796875 -7.578125 "/></g></g></g><g clip-path="url(#e1336e733d)"><g clip-path="url(#33b7a8ff15)"><path fill="#2c502f" d="M -6.296875 176.347656 L 18.910156 181.097656 L 8.109375 238.402344 L -17.097656 233.652344 Z M -6.296875 176.347656 " fill-opacity="1" fill-rule="nonzero"/></g></g></svg>